<svg class="header__logo" xmlns="http://www.w3.org/2000/svg" viewBox="0 0 386.13 28.65">
	<g class="common-good" id="Layer_1" data-name="Layer 1">
		<path d="M21.64,30H26.1c3.37,0,7.07,2.24,7.07,6.73s-3.7,6.72-7.07,6.72H21.64ZM23,42.24h2.71c4.05,0,6-2.74,6-5.51s-2-5.51-6-5.51H23Z" transform="translate(-10 -22.46)" />
		<path d="M39.65,43.68A4.68,4.68,0,1,1,44.4,39,4.56,4.56,0,0,1,39.65,43.68Zm0-8.26A3.35,3.35,0,0,0,36.29,39,3.38,3.38,0,1,0,43,39,3.36,3.36,0,0,0,39.65,35.42Z" transform="translate(-10 -22.46)" />
		<path d="M53.25,43.45c0-.47-.07-1.14-.07-1.52h0a3.46,3.46,0,0,1-3,1.75c-2.26,0-3.38-1.46-3.38-3.67V34.56H48v4.92c0,1.86.55,3.12,2.41,3.12,1.37,0,2.7-1.1,2.7-3.48V34.56h1.29V41.5c0,.47,0,1.34.08,2Z" transform="translate(-10 -22.46)" />
		<path d="M57.93,45.24a4.5,4.5,0,0,0,3.4,1.63,3.15,3.15,0,0,0,3.48-3.49V41.71h0a4,4,0,0,1-3.37,1.74,4.35,4.35,0,0,1-4.59-4.52,4.46,4.46,0,0,1,4.59-4.6,4,4,0,0,1,3.37,1.77h0V34.56H66.1v8.82c0,1.93-.9,4.63-4.83,4.63A6,6,0,0,1,57,46.23Zm3.61-2.89A3.29,3.29,0,0,0,65,38.89a3.42,3.42,0,0,0-3.42-3.47,3.27,3.27,0,0,0-3.36,3.47A3.26,3.26,0,0,0,61.54,42.35Z" transform="translate(-10 -22.46)" />
		<path d="M70.45,36a3.3,3.3,0,0,1,3-1.7c2.26,0,3.38,1.47,3.38,3.67v5.45H75.52V38.53c0-1.86-.55-3.11-2.41-3.11-1.37,0-2.7,1.1-2.7,3.47v4.56H69.12V29.09h1.29V36Z" transform="translate(-10 -22.46)" />
		<path d="M87.85,39.35H80.48a3.25,3.25,0,0,0,3.25,3.23A3.37,3.37,0,0,0,86.58,41l1,.76a4.65,4.65,0,0,1-3.82,1.88,4.68,4.68,0,0,1-.11-9.35,4.08,4.08,0,0,1,4.25,4.41C87.87,38.91,87.87,39.12,87.85,39.35Zm-1.29-1a2.8,2.8,0,0,0-2.94-2.9,3.14,3.14,0,0,0-3.12,2.9Z" transform="translate(-10 -22.46)" />
		<path d="M90.19,34.56h1.23c0,.48.08,1.14.08,1.52h0a3.17,3.17,0,0,1,2.85-1.75,2.83,2.83,0,0,1,.85.1l-.17,1.22a3.27,3.27,0,0,0-.91-.12c-1.37,0-2.6,1-2.6,3.36v4.56H90.27V36.52C90.27,36,90.25,35.17,90.19,34.56Z" transform="translate(-10 -22.46)" />
		<path d="M100.51,35.65H98v5.18c0,1.33.55,1.64,1.33,1.64a2.66,2.66,0,0,0,1.12-.29l.06,1.12a4.2,4.2,0,0,1-1.52.27,2.12,2.12,0,0,1-2.28-2.38V35.65H94.86V34.56h1.85V32.05H98v2.51h2.51Z" transform="translate(-10 -22.46)" />
		<path d="M105.2,42.07h0L108,34.56h1.41L105,45.75c-.53,1.37-1.25,2.26-2.79,2.26A6.51,6.51,0,0,1,101,47.9l.13-1.18a2.91,2.91,0,0,0,.95.15c.88,0,1.33-.57,1.71-1.57l.72-1.87-3.8-8.87h1.45Z" transform="translate(-10 -22.46)" />
		<path d="M116.85,43.45h-1.37V30h8.11v1.22h-6.74v4.67h6.27v1.2h-6.27Z" transform="translate(-10 -22.46)" />
		<path d="M130.39,37.72a2.08,2.08,0,0,0-2.37-2.3,3.78,3.78,0,0,0-2.64,1l-.72-.85a5,5,0,0,1,3.49-1.28c1.92,0,3.46,1.07,3.46,3.23v3.9a12.72,12.72,0,0,0,.15,2H130.6a9.52,9.52,0,0,1-.13-1.44h0a3.57,3.57,0,0,1-3.23,1.67,2.79,2.79,0,0,1-3.08-2.7c0-2.73,3-3,6.27-3ZM130,39c-2.11,0-4.56.23-4.56,1.92,0,1.27,1.09,1.69,2.09,1.69a2.77,2.77,0,0,0,2.85-2.95V39Z" transform="translate(-10 -22.46)" />
		<path d="M138.75,34.33a2.76,2.76,0,0,1,2.74,1.89,3.29,3.29,0,0,1,3.11-1.89c2.26,0,3.39,1.47,3.39,3.67v5.45h-1.3V38.53c0-1.86-.62-3.11-2.29-3.11-1.87,0-2.53,1.65-2.53,3.3v4.73h-1.29V38.27c0-1.73-.42-2.85-2.15-2.85-1.23,0-2.58,1.1-2.58,3.47v4.56h-1.3V36.52c0-.48,0-1.35-.07-2h1.23c0,.48.08,1.14.08,1.52h0A3.29,3.29,0,0,1,138.75,34.33Z" transform="translate(-10 -22.46)" />
		<path d="M151.62,32.05a.91.91,0,1,1,.91-.91A.93.93,0,0,1,151.62,32.05Zm.64,11.4H151V34.56h1.29Z" transform="translate(-10 -22.46)" />
		<path d="M156.65,43.45h-1.29V29.09h1.29Z" transform="translate(-10 -22.46)" />
		<path d="M162.79,42.07h0l2.75-7.51H167l-4.43,11.19C162,47.12,161.31,48,159.77,48a6.51,6.51,0,0,1-1.16-.11l.13-1.18a2.91,2.91,0,0,0,.95.15c.87,0,1.33-.57,1.71-1.57l.72-1.87-3.8-8.87h1.45Z" transform="translate(-10 -22.46)" />
		<path d="M184.39,41.29a5.89,5.89,0,0,1-5,2.5,6.8,6.8,0,0,1-7-7.06,6.84,6.84,0,0,1,7-7.07,5.93,5.93,0,0,1,4.79,2.13l-1.14.83a4.42,4.42,0,0,0-3.63-1.76,5.55,5.55,0,0,0-5.58,5.87,5.57,5.57,0,0,0,5.58,5.87,4.62,4.62,0,0,0,4-2Z" transform="translate(-10 -22.46)" />
		<path d="M190.15,43.68A4.68,4.68,0,1,1,194.9,39,4.55,4.55,0,0,1,190.15,43.68Zm0-8.26A3.36,3.36,0,0,0,186.78,39a3.38,3.38,0,1,0,6.75,0A3.36,3.36,0,0,0,190.15,35.42Z" transform="translate(-10 -22.46)" />
		<path d="M198.62,43.45h-1.29V29.09h1.29Z" transform="translate(-10 -22.46)" />
		<path d="M203,43.45h-1.29V29.09H203Z" transform="translate(-10 -22.46)" />
		<path d="M214.18,39.35h-7.37a3.25,3.25,0,0,0,3.25,3.23A3.37,3.37,0,0,0,212.91,41l1,.76a4.65,4.65,0,0,1-3.82,1.88,4.68,4.68,0,0,1-.11-9.35,4.08,4.08,0,0,1,4.25,4.41C214.2,38.91,214.2,39.12,214.18,39.35Zm-1.29-1a2.8,2.8,0,0,0-2.94-2.9,3.14,3.14,0,0,0-3.12,2.9Z" transform="translate(-10 -22.46)" />
		<path d="M217.07,45.24a4.5,4.5,0,0,0,3.4,1.63A3.15,3.15,0,0,0,224,43.38V41.71h0a4,4,0,0,1-3.36,1.74,4.36,4.36,0,0,1-4.6-4.52,4.47,4.47,0,0,1,4.6-4.6,4,4,0,0,1,3.36,1.77h0V34.56h1.29v8.82c0,1.93-.89,4.63-4.83,4.63a6,6,0,0,1-4.27-1.78Zm3.61-2.89a3.29,3.29,0,0,0,3.42-3.46,3.42,3.42,0,0,0-3.42-3.47,3.27,3.27,0,0,0-3.36,3.47A3.26,3.26,0,0,0,220.68,42.35Z" transform="translate(-10 -22.46)" />
		<path d="M236.3,39.35h-7.37a3.23,3.23,0,0,0,3.24,3.23A3.36,3.36,0,0,0,235,41l1,.76a4.62,4.62,0,0,1-3.82,1.88,4.68,4.68,0,0,1-.11-9.35,4.08,4.08,0,0,1,4.26,4.41C236.32,38.91,236.32,39.12,236.3,39.35Zm-1.29-1a2.81,2.81,0,0,0-2.95-2.9,3.13,3.13,0,0,0-3.11,2.9Z" transform="translate(-10 -22.46)" />
		<path d="M246.07,23.5a1,1,0,0,1,1.05-1h0a1,1,0,0,1,1,1h0a1,1,0,0,1-1,1.05h0A1,1,0,0,1,246.07,23.5Z" transform="translate(-10 -22.46)" />
		<path d="M246.07,50.06a1,1,0,0,1,1.05-1h0a1,1,0,0,1,1,1h0a1,1,0,0,1-1,1h0A1,1,0,0,1,246.07,50.06Z" transform="translate(-10 -22.46)" />
		<line class="cls-2" y1="6.9" x2="264" y2="6.9" />
	</g>
	<path class="divider" d="M246.07,45.64a1,1,0,0,1,1.05-1h0a1,1,0,0,1,1,1h0a1,1,0,0,1-1,1h0A1,1,0,0,1,246.07,45.64Zm0-4.42a1,1,0,0,1,1.05-1h0a1,1,0,0,1,1,1h0a1,1,0,0,1-1,1h0A1,1,0,0,1,246.07,41.22Zm0-4.43a1,1,0,0,1,1.05-1h0a1,1,0,0,1,1,1h0a1,1,0,0,1-1,1.05h0A1,1,0,0,1,246.07,36.79Zm0-4.43a1,1,0,0,1,1.05-1.05h0a1,1,0,0,1,1,1.05h0a1,1,0,0,1-1,1h0A1,1,0,0,1,246.07,32.36Zm0-4.43a1,1,0,0,1,1.05-1h0a1,1,0,0,1,1,1h0a1,1,0,0,1-1,1.05h0A1,1,0,0,1,246.07,27.93Z" transform="translate(-10 -22.46)" />
	<path class="st-thomas" d="M391.94,38.69A6.09,6.09,0,0,0,387,36.53c-2.94,0-5.27,1.17-5.27,3.86,0,4.51,7.37,2.84,7.37,4.87,0,.63-.94,1.38-2.31,1.38a4,4,0,0,1-3.43-1.48l-2.17,1.67A7.48,7.48,0,0,0,387,49c2.72,0,5.29-1.3,5.29-4.17,0-4.49-7.51-2.73-7.51-4.8,0-.7.85-1.18,2.19-1.15a3.12,3.12,0,0,1,3,1.69Zm-14.75,5.77c0,1.52-1.72,2.18-3.06,2.18-1,0-1.86-.59-1.86-1.48,0-1.13.9-1.44,2-1.65l1.58-.33a5.06,5.06,0,0,0,1.36-.42Zm2.87-4c0-3.39-2.56-3.9-5.13-3.9s-5.08,1.08-5.08,3.88l2.87.12c0-1.3.54-1.79,2.21-1.79,1.25,0,2.26.33,2.26,1.5v.36a31.5,31.5,0,0,1-3.11.7l-1.2.24c-1.76.35-3.62,1.38-3.62,3.72A3.75,3.75,0,0,0,373.31,49a6,6,0,0,0,3.88-1.37,2.2,2.2,0,0,0,.28,1.08h3a3.38,3.38,0,0,1-.45-2Zm-29.95,8.28H353V42.43c0-1.69,1-3.27,2.52-3.27,1.39,0,2,1,2,2.33v7.22h2.87V42.43c0-1.69,1-3.27,2.56-3.27,1.34,0,1.95,1,1.95,2.33v7.22h2.87V40.34c0-2.57-1.57-3.81-4.16-3.81a4.33,4.33,0,0,0-3.67,1.79,3.62,3.62,0,0,0-3.51-1.79A4.5,4.5,0,0,0,353,38V36.81h-2.87Zm-7.22-9.55c2.05,0,3.08,1.74,3.08,3.6s-1,3.6-3.08,3.6-3.08-1.74-3.08-3.6,1-3.6,3.08-3.6m0-2.63c-3.86,0-6.09,2.68-6.09,6.23S339,49,342.89,49,349,46.31,349,42.76s-2.23-6.23-6.09-6.23M324.51,48.71h2.87V42.6c0-1.46.66-3.3,2.83-3.3,1.46,0,2.11.71,2.11,2.35v7.06h2.88V40.83c0-3.46-2.34-4.3-4.36-4.3A4.18,4.18,0,0,0,327.43,38h-.05V32h-2.87Zm-8.84,0h3.15V34.88h4.59V32H311.08v2.92h4.59Zm-8.19,0h3.15V45.47h-3.15Zm-6.77-11.9H299v2.07h1.75V46c0,1.82.8,2.87,3.15,2.87a10.68,10.68,0,0,0,2.28-.28V46.22a11.46,11.46,0,0,1-1.27.14c-1.11,0-1.29-.52-1.29-1.46v-6h2.56V36.81h-2.56V32.6h-2.87Zm-16.64,8.8a8.79,8.79,0,0,0,7.25,3.53c3.48,0,7.34-1.42,7.34-5.51,0-3.18-2.35-4.19-4.85-4.73l-2-.45c-1.89-.42-3.46-.75-3.46-2.14,0-1.17,1.36-1.86,3.17-1.86a4.69,4.69,0,0,1,4.4,2.43l2.61-2a8.29,8.29,0,0,0-7-3.36c-3.13,0-6.5,1.69-6.5,5.22,0,3.08,2.36,4.07,5,4.68l1.86.43c2.23.51,3.45.89,3.45,2.21,0,1.62-2,2.14-3.55,2.14a5.86,5.86,0,0,1-5.06-2.54Z" transform="translate(-10 -22.46)" />
	<path d="M341.26,28.27h.94V26.16h2v-.82h-2V24.15h2.34v-.87h-3.28Zm-4.1-5.12a2.43,2.43,0,0,0-2.39,2.62,2.4,2.4,0,1,0,4.78,0,2.43,2.43,0,0,0-2.39-2.62m0,.87c1,0,1.41.88,1.41,1.75s-.42,1.76-1.41,1.76-1.41-.89-1.41-1.76.41-1.75,1.41-1.75m-7.71,4.25h.94V26.32l1.66-3h-1l-1.09,2.06-1.09-2.06h-1l1.66,3Zm-5.07,0h.93V24.15h1.37v-.87H323v.87h1.37Zm-3.84,0h.93v-5h-.93Zm-6-.93a2.61,2.61,0,0,0,2.16,1.06c1,0,2.18-.43,2.18-1.64,0-1-.7-1.25-1.44-1.41l-.61-.14c-.56-.12-1-.22-1-.63s.41-.56,1-.56a1.4,1.4,0,0,1,1.31.72l.77-.58a2.45,2.45,0,0,0-2.08-1,1.73,1.73,0,0,0-1.93,1.56c0,.92.7,1.21,1.5,1.39l.55.13c.67.15,1,.26,1,.66s-.6.64-1.06.64a1.73,1.73,0,0,1-1.5-.76Zm-4-3.24h.88c.65,0,1,.3,1,.76a.74.74,0,0,1-.82.75h-1Zm-.94,4.17h.94V26.43h.9l1,1.84h1.09l-1.12-2a1.4,1.4,0,0,0,1-1.47,1.5,1.5,0,0,0-1.68-1.51h-2.08Zm-5.26,0H308V27.4h-2.78V26.11h2.39v-.83h-2.39V24.15h2.6v-.87h-3.53Zm-4.15,0h1.26l1.45-5h-1l-1.1,4h0l-1.1-4h-1Zm-3.88,0h.94v-5h-.94Zm-5.8,0h.85V24.72h0l2.09,3.55h.86v-5h-.85v3.55h0l-2.1-3.55h-.86Zm-1.93-5h-.94v3.21c0,.61-.26,1-1.07,1s-1.07-.39-1.07-1V23.28h-.94v3.46c0,1,.8,1.66,2,1.66s2-.65,2-1.66Z" transform="translate(-10 -22.46)" />
	<path d="M280.46,33.26a1,1,0,0,0-.45.21,1.79,1.79,0,0,1-2.18,0,1.37,1.37,0,0,0-1.66,0,1.79,1.79,0,0,1-2.18,0,1.37,1.37,0,0,0-1.66,0,1.31,1.31,0,0,1-.54.27v3.62a3.15,3.15,0,0,0-1,0V33.74a1.27,1.27,0,0,1-.53-.27,1.2,1.2,0,0,0-.82-.28,1.22,1.22,0,0,0-.83.28,1.79,1.79,0,0,1-2.18,0,1.37,1.37,0,0,0-1.66,0,1.79,1.79,0,0,1-2.18,0,1,1,0,0,0-.46-.21,17.37,17.37,0,0,0,.78,6.33h5.65a4,4,0,0,0,0,.5,3.29,3.29,0,0,0,.05.54h-5.3A16.14,16.14,0,0,0,270.79,49v-6.2a2.53,2.53,0,0,0,1,0V49a16.18,16.18,0,0,0,7.54-8.38H274a2.48,2.48,0,0,0,.06-.54,2.73,2.73,0,0,0-.05-.5h5.68A17.05,17.05,0,0,0,280.46,33.26ZM268.24,35a2.43,2.43,0,0,0,1,.88,2.3,2.3,0,0,1,1.25,1.2,1.46,1.46,0,0,0,.2.27,2.75,2.75,0,0,0-1.26.64,3.61,3.61,0,0,1-.12-.45,2.28,2.28,0,0,0-.69-1.41A1.92,1.92,0,0,1,268.24,35Zm0,3.91a2.42,2.42,0,0,0-1.13-1.1,1.93,1.93,0,0,1-.76-.93,2.39,2.39,0,0,0,1.26.49,2.41,2.41,0,0,1,1.58.7.38.38,0,0,0,.11.08,2.69,2.69,0,0,0-.68,1.25A2.32,2.32,0,0,1,268.22,38.94Zm-2,4.28a2.41,2.41,0,0,0,.89-1,2.33,2.33,0,0,1,1.2-1.23,1.82,1.82,0,0,0,.29-.21,2.77,2.77,0,0,0,.69,1.23,2.6,2.6,0,0,1-.51.15,2.32,2.32,0,0,0-1.42.68A1.94,1.94,0,0,1,266.22,43.22Zm3.95,0a2.3,2.3,0,0,0-1.11,1.12,1.93,1.93,0,0,1-.94.75,2.38,2.38,0,0,0,.5-1.24,2.27,2.27,0,0,1,.7-1.57,1.16,1.16,0,0,0,.11-.16,2.79,2.79,0,0,0,1.29.66A2.45,2.45,0,0,1,270.17,43.24Zm2.26-6.31a2.28,2.28,0,0,0,1.11-1.11,1.93,1.93,0,0,1,.94-.75,2.38,2.38,0,0,0-.5,1.24,2.34,2.34,0,0,1-.7,1.57,1.77,1.77,0,0,0-.12.17,2.73,2.73,0,0,0-1.28-.67A2.45,2.45,0,0,1,272.43,36.93Zm1.91,8.22a2.41,2.41,0,0,0-1-.89,2.35,2.35,0,0,1-1.25-1.19,1.55,1.55,0,0,0-.2-.28,2.8,2.8,0,0,0,1.26-.64,3.52,3.52,0,0,1,.13.45A2.32,2.32,0,0,0,274,44,1.92,1.92,0,0,1,274.34,45.15Zm0-3.91a2.35,2.35,0,0,0,1.13,1.09,1.91,1.91,0,0,1,.76.93,2.48,2.48,0,0,0-1.26-.49,2.4,2.4,0,0,1-1.58-.69L273.3,42a2.83,2.83,0,0,0,.68-1.25A2.11,2.11,0,0,1,274.36,41.24ZM275.49,38a2.35,2.35,0,0,1-1.2,1.24,1.21,1.21,0,0,0-.3.21,2.83,2.83,0,0,0-.63-1.17l-.07-.06a2.91,2.91,0,0,1,.52-.16,2.27,2.27,0,0,0,1.43-.67,1.94,1.94,0,0,1,1.14-.39A2.43,2.43,0,0,0,275.49,38Z" transform="translate(-10 -22.46)" />
	<path d="M263.78,32.38a1.22,1.22,0,0,0,.81-.27,1.63,1.63,0,0,1,1.07-.37,1.58,1.58,0,0,1,1.06.37,1.35,1.35,0,0,0,1.62,0,1.58,1.58,0,0,1,1.06-.37,1.63,1.63,0,0,1,1.07.37,1.22,1.22,0,0,0,.81.27h0a1.23,1.23,0,0,0,.81-.27,1.58,1.58,0,0,1,1.06-.37,1.63,1.63,0,0,1,1.07.37,1.34,1.34,0,0,0,1.61,0,1.63,1.63,0,0,1,1.07-.37,1.58,1.58,0,0,1,1.06.37,1.35,1.35,0,0,0,1.62,0,1.43,1.43,0,0,1,.73-.31l-2.94-5.9a1.83,1.83,0,0,1-1.44.44c-.95,0-1-.45-2.51-.45a2.77,2.77,0,0,0-2.16.68h0a2.78,2.78,0,0,0-2.15-.68c-1.49,0-1.57.45-2.51.45a1.86,1.86,0,0,1-1.45-.44l-2.94,5.9a1.46,1.46,0,0,1,.74.31A1.21,1.21,0,0,0,263.78,32.38ZM273.59,27c1.36,0,1.59.42,2.48.42a2.68,2.68,0,0,0,1.23-.21l1.63,3.38s-.2.26-1.58.26-1.6-.77-3.69-.78a2.28,2.28,0,0,0-1.62.63l-.7-3A2.93,2.93,0,0,1,273.59,27Zm-8.31.21a2.74,2.74,0,0,0,1.24.21c.88,0,1.11-.42,2.48-.42a2.89,2.89,0,0,1,2.24.71l-.7,3a2.25,2.25,0,0,0-1.61-.63c-2.1,0-2.31.78-3.69.78s-1.59-.26-1.59-.26Z" transform="translate(-10 -22.46)" />
	<path d="M394.46,45.46a1.66,1.66,0,1,1-1.67,1.66A1.66,1.66,0,0,1,394.46,45.46Zm0,3.07a1.41,1.41,0,1,0-1.41-1.41A1.41,1.41,0,0,0,394.46,48.53Zm-.66-2.36h.67c.35,0,.69.15.69.55a.5.5,0,0,1-.43.51l.51.82h-.42l-.43-.78h-.25v.78h-.34Zm.61.83c.19,0,.41,0,.41-.28s-.19-.26-.37-.26h-.31V47Z" transform="translate(-10 -22.46)" />
</svg>
