<?xml version="1.0" encoding="utf-8"?>
<!-- Generator: Adobe Illustrator 21.1.0, SVG Export Plug-In . SVG Version: 6.00 Build 0)  -->
<svg version="1.1" id="Layer_1" xmlns="http://www.w3.org/2000/svg" xmlns:xlink="http://www.w3.org/1999/xlink" x="0px" y="0px"
	 viewBox="0 0 360 94" style="enable-background:new 0 0 360 94;" xml:space="preserve">
<style type="text/css">
	.st0{enable-background:new    ;}
	.st1{clip-path:url(#SVGID_2_);}
	.st2{clip-path:url(#SVGID_4_);}
	.st3{opacity:0.15;}
	.st4{fill:#3C045B;}
	.st5{clip-path:url(#SVGID_6_);}
	.st6{clip-path:url(#SVGID_8_);}
	.st7{clip-path:url(#SVGID_10_);}
	.st8{clip-path:url(#SVGID_12_);}
</style>
<g class="st0">
	<g>
		<defs>
			<rect id="SVGID_1_" width="360" height="189"/>
		</defs>
		<clipPath id="SVGID_2_">
			<use xlink:href="#SVGID_1_"  style="overflow:visible;"/>
		</clipPath>
		<g class="st1">
			<defs>
				
					<rect id="SVGID_3_" x="27.8" y="27.7" transform="matrix(0.7071 -0.7071 0.7071 0.7071 -39.1199 94.6057)" width="133.6" height="133.6"/>
			</defs>
			<clipPath id="SVGID_4_">
				<use xlink:href="#SVGID_3_"  style="overflow:visible;"/>
			</clipPath>
			<g class="st2">
				<g class="st3">
					<path class="st4" d="M94.6,190.4L-1.3,94.5L94.6-1.4l95.9,95.9L94.6,190.4z M1.6,94.5l93.1,93.1l93.1-93.1L94.6,1.5L1.6,94.5z"
						/>
				</g>
			</g>
		</g>
		<g class="st1">
			<defs>
				
					<rect id="SVGID_5_" x="70.4" y="27.7" transform="matrix(0.7071 -0.7071 0.7071 0.7071 -26.6463 124.7196)" width="133.6" height="133.6"/>
			</defs>
			<clipPath id="SVGID_6_">
				<use xlink:href="#SVGID_5_"  style="overflow:visible;"/>
			</clipPath>
			<g class="st5">
				<g class="st3">
					<path class="st4" d="M137.2,190.4L41.3,94.5l95.9-95.9l95.9,95.9L137.2,190.4z M44.2,94.5l93.1,93.1l93.1-93.1L137.2,1.5
						L44.2,94.5z"/>
				</g>
			</g>
		</g>
		<g class="st1">
			<defs>
				
					<rect id="SVGID_7_" x="113" y="27.7" transform="matrix(0.7071 -0.7071 0.7071 0.7071 -14.1726 154.8336)" width="133.6" height="133.6"/>
			</defs>
			<clipPath id="SVGID_8_">
				<use xlink:href="#SVGID_7_"  style="overflow:visible;"/>
			</clipPath>
			<g class="st6">
				<g class="st3">
					<path class="st4" d="M179.8,190.4L83.9,94.5l95.9-95.9l95.9,95.9L179.8,190.4z M86.8,94.5l93.1,93.1l93.1-93.1L179.8,1.5
						L86.8,94.5z"/>
				</g>
			</g>
		</g>
		<g class="st1">
			<defs>
				
					<rect id="SVGID_9_" x="155.6" y="27.7" transform="matrix(0.7071 -0.7071 0.7071 0.7071 -1.699 184.9477)" width="133.6" height="133.6"/>
			</defs>
			<clipPath id="SVGID_10_">
				<use xlink:href="#SVGID_9_"  style="overflow:visible;"/>
			</clipPath>
			<g class="st7">
				<g class="st3">
					<path class="st4" d="M222.4,190.4l-95.9-95.9l95.9-95.9l95.9,95.9L222.4,190.4z M129.3,94.5l93.1,93.1l93.1-93.1L222.4,1.5
						L129.3,94.5z"/>
				</g>
			</g>
		</g>
		<g class="st1">
			<defs>
				
					<rect id="SVGID_11_" x="198.2" y="27.7" transform="matrix(0.7071 -0.7071 0.7071 0.7071 10.7746 215.0617)" width="133.6" height="133.6"/>
			</defs>
			<clipPath id="SVGID_12_">
				<use xlink:href="#SVGID_11_"  style="overflow:visible;"/>
			</clipPath>
			<g class="st8">
				<g class="st3">
					<path class="st4" d="M265,190.4l-95.9-95.9L265-1.4l95.9,95.9L265,190.4z M171.9,94.5l93.1,93.1l93.1-93.1L265,1.5L171.9,94.5z
						"/>
				</g>
			</g>
		</g>
	</g>
</g>
</svg>
