<?xml version="1.0" encoding="utf-8"?>
<!-- Generator: Adobe Illustrator 21.1.0, SVG Export Plug-In . SVG Version: 6.00 Build 0)  -->
<svg version="1.1" id="Layer_1" xmlns="http://www.w3.org/2000/svg" xmlns:xlink="http://www.w3.org/1999/xlink" x="0px" y="0px"
	 viewBox="0 0 732 733" style="enable-background:new 0 0 732 733;" xml:space="preserve">
<style type="text/css">
	.st0{enable-background:new    ;}
	.st1{clip-path:url(#SVGID_2_);}
	.st2{clip-path:url(#SVGID_4_);}
	.st3{opacity:0.15;clip-path:url(#SVGID_6_);fill:none;stroke:#FFFFFF;stroke-width:3;stroke-miterlimit:10;}
	.st4{clip-path:url(#SVGID_8_);}
	.st5{opacity:0.15;clip-path:url(#SVGID_10_);fill:none;stroke:#FFFFFF;stroke-width:3;stroke-miterlimit:10;}
	.st6{clip-path:url(#SVGID_12_);}
	.st7{opacity:0.15;clip-path:url(#SVGID_14_);fill:none;stroke:#FFFFFF;stroke-width:3;stroke-miterlimit:10;}
	.st8{clip-path:url(#SVGID_16_);}
	.st9{opacity:0.15;clip-path:url(#SVGID_18_);fill:none;stroke:#FFFFFF;stroke-width:3;stroke-miterlimit:10;}
	.st10{clip-path:url(#SVGID_20_);}
	.st11{opacity:0.15;clip-path:url(#SVGID_22_);fill:none;stroke:#FFFFFF;stroke-width:3;stroke-miterlimit:10;}
	
		.st12{opacity:0.15;clip-path:url(#SVGID_24_);fill:none;stroke:#FFFFFF;stroke-width:1.5;stroke-linecap:square;stroke-miterlimit:10;}
</style>
<g class="st0">
	<g>
		<defs>
			<polyline id="SVGID_1_" points="732,0 0,0 0,733 732,733 			"/>
		</defs>
		<clipPath id="SVGID_2_">
			<use xlink:href="#SVGID_1_"  style="overflow:visible;"/>
		</clipPath>
		<g class="st1">
			<defs>
				
					<rect id="SVGID_3_" x="420.3" y="60.8" transform="matrix(0.7071 -0.7071 0.7071 0.7071 27.1173 442.9546)" width="255.9" height="255.9"/>
			</defs>
			<clipPath id="SVGID_4_">
				<use xlink:href="#SVGID_3_"  style="overflow:visible;"/>
			</clipPath>
			<g class="st2">
				<defs>
					<rect id="SVGID_5_" x="5" y="7" width="725" height="722"/>
				</defs>
				<clipPath id="SVGID_6_">
					<use xlink:href="#SVGID_5_"  style="overflow:visible;"/>
				</clipPath>
				
					<rect x="420.3" y="60.8" transform="matrix(0.7071 -0.7071 0.7071 0.7071 27.1173 442.9545)" class="st3" width="255.9" height="255.9"/>
			</g>
		</g>
		<g class="st1">
			<defs>
				
					<rect id="SVGID_7_" x="420.3" y="421.3" transform="matrix(0.7071 -0.7071 0.7071 0.7071 -227.8006 548.545)" width="255.9" height="255.9"/>
			</defs>
			<clipPath id="SVGID_8_">
				<use xlink:href="#SVGID_7_"  style="overflow:visible;"/>
			</clipPath>
			<g class="st4">
				<defs>
					<rect id="SVGID_9_" x="5" y="7" width="725" height="722"/>
				</defs>
				<clipPath id="SVGID_10_">
					<use xlink:href="#SVGID_9_"  style="overflow:visible;"/>
				</clipPath>
				
					<rect x="420.3" y="421.3" transform="matrix(0.7071 -0.7071 0.7071 0.7071 -227.8006 548.545)" class="st5" width="255.9" height="255.9"/>
			</g>
		</g>
		<g class="st1">
			<defs>
				
					<rect id="SVGID_11_" x="58.8" y="60.8" transform="matrix(0.7071 -0.7071 0.7071 0.7071 -78.7648 187.3326)" width="255.9" height="255.9"/>
			</defs>
			<clipPath id="SVGID_12_">
				<use xlink:href="#SVGID_11_"  style="overflow:visible;"/>
			</clipPath>
			<g class="st6">
				<defs>
					<rect id="SVGID_13_" x="5" y="7" width="725" height="722"/>
				</defs>
				<clipPath id="SVGID_14_">
					<use xlink:href="#SVGID_13_"  style="overflow:visible;"/>
				</clipPath>
				
					<rect x="58.8" y="60.8" transform="matrix(0.7071 -0.7071 0.7071 0.7071 -78.7648 187.3325)" class="st7" width="255.9" height="255.9"/>
			</g>
		</g>
		<g class="st1">
			<defs>
				
					<rect id="SVGID_15_" x="58.8" y="421.3" transform="matrix(0.7071 -0.7071 0.7071 0.7071 -333.6827 292.923)" width="255.9" height="255.9"/>
			</defs>
			<clipPath id="SVGID_16_">
				<use xlink:href="#SVGID_15_"  style="overflow:visible;"/>
			</clipPath>
			<g class="st8">
				<defs>
					<rect id="SVGID_17_" x="5" y="7" width="725" height="722"/>
				</defs>
				<clipPath id="SVGID_18_">
					<use xlink:href="#SVGID_17_"  style="overflow:visible;"/>
				</clipPath>
				
					<rect x="58.8" y="421.3" transform="matrix(0.7071 -0.7071 0.7071 0.7071 -333.6827 292.9229)" class="st9" width="255.9" height="255.9"/>
			</g>
		</g>
		<g class="st1">
			<defs>
				
					<rect id="SVGID_19_" x="111.6" y="112.6" transform="matrix(0.7071 -0.7071 0.7071 0.7071 -152.5181 366.7971)" width="509.9" height="509.9"/>
			</defs>
			<clipPath id="SVGID_20_">
				<use xlink:href="#SVGID_19_"  style="overflow:visible;"/>
			</clipPath>
			<g class="st10">
				<defs>
					<rect id="SVGID_21_" x="5" y="7" width="725" height="722"/>
				</defs>
				<clipPath id="SVGID_22_">
					<use xlink:href="#SVGID_21_"  style="overflow:visible;"/>
				</clipPath>
				
					<rect x="111.6" y="112.6" transform="matrix(0.7071 -0.7071 0.7071 0.7071 -152.5181 366.797)" class="st11" width="509.9" height="509.9"/>
			</g>
		</g>
		<g class="st1">
			<defs>
				<rect id="SVGID_23_" x="5" y="7" width="725" height="722"/>
			</defs>
			<clipPath id="SVGID_24_">
				<use xlink:href="#SVGID_23_"  style="overflow:visible;"/>
			</clipPath>
			<line class="st12" x1="366.8" y1="725.4" x2="366.8" y2="8"/>
			<line class="st12" x1="8" y1="367.8" x2="724.4" y2="367.8"/>
		</g>
	</g>
</g>
</svg>
