<svg xmlns="http://www.w3.org/2000/svg" viewBox="0 0 364.944 364.944">
    <g fill="none" stroke="#7162ff" stroke-width=".25">
        <path d="M182.687 92.727l91.04-91.04 91.04 91.04-91.04 91.04z"/>
        <path d="M182.687 273.726l91.04-91.04 91.04 91.04-91.04 91.04zm-181-180.999l91.04-91.04 91.04 91.04-91.04 91.04z"/>
        <path d="M1.687 273.726l91.04-91.04 91.04 91.04-91.04 91.04z"/>
        <path d="M.177 181.727L181.727.177l181.55 181.55-181.55 181.55z"/>
        <path d="M2.227 274.893h360.716m-360.716-184h360.716M91.227 3.3v359.886m182-360.96v361.925M90.525 90.524l184.114 184.114m-228.16 43.043L272.643 91.517" stroke-linecap="square"/>
    </g>
</svg>
