<svg xmlns="http://www.w3.org/2000/svg" viewBox="0 0 9.765 547.817">
    <path fill="#3d2d9a" d="M9.765 17.254L0 11.06v1.185l9.765 6.193v-1.184zM0 24.481l9.765 6.194v-1.184L0 23.297v1.184zM0 36.72l9.765 6.194v-1.185L0 35.536v1.184zm0 12.237l9.765 6.193v-1.184L0 47.773v1.184zm0 12.237l9.765 6.193v-1.184L0 60.01v1.184zm0 12.239l9.765 6.193v-1.184L0 72.248v1.185zm0 12.236l9.765 6.194v-1.184L0 84.485v1.184z"/>
    <path fill="#7162ff" d="M0 99.62l9.765 6.193v-1.184L0 98.435v1.185zm0 12.238l9.765 6.193v-1.184L0 110.674v1.184zm0 12.237l9.765 6.194v-1.185L0 122.911v1.184zm0 12.237l9.765 6.193v-1.184L0 135.148v1.184zm0 12.239l9.765 6.193v-1.184L0 147.387v1.184zm0 12.237v-1.185m0 1.185l9.765 6.193v-1.184L0 159.623v1.185zm0 12.236v-1.184m0 1.184l9.765 6.194v-1.184L0 171.86v1.184zm0 12.239v-1.184m0 1.184l9.765 6.193v-1.184L0 184.099v1.184zm0 12.237v-1.184m0 1.184l9.765 6.193v-1.184L0 196.336v1.184z"/>
    <path fill="#1cabe6" d="M0 209.775v-1.184m0 1.184l9.765 6.194v-1.184L0 208.591v1.184zm0 12.239v-1.185m0 1.185l9.765 6.193v-1.184L0 220.829v1.185zm0 12.237v-1.184m0 1.184l9.765 6.193v-1.184L0 233.067v1.184zm0 12.237v-1.184m0 1.184l9.765 6.193v-1.184L0 245.304v1.184zm0 12.239v-1.185m0 1.185l9.765 6.193v-1.184L0 257.542v1.185zm0 12.236v-1.183m0 1.183l9.765 6.193v-1.183L0 269.78v1.183zM0 283.2v-1.183m0 1.183l9.765 6.194v-1.184L0 282.017v1.183zm0 12.238v-1.183m0 1.183l9.765 6.194v-1.183L0 294.255v1.183zm0 12.237v-1.183m0 1.183l9.765 6.193v-1.183L0 306.492v1.183z"/>
    <path fill="#3d2d9a" d="M0 319.769v-1.184m0 1.184l9.765 6.193v-1.183L0 318.585v1.184zm0 12.238v-1.183m0 1.183l9.765 6.193v-1.183L0 330.824v1.183zm0 12.237v-1.183m0 1.183l9.765 6.194v-1.184L0 343.061v1.183zm0 12.237v-1.183m0 1.183l9.765 6.194v-1.183L0 355.298v1.183zm0 12.239v-1.184m0 1.184l9.765 6.193v-1.183L0 367.536v1.184zm0 12.237v-1.183m0 1.183l9.765 6.193v-1.183L0 379.774v1.183zm0 12.236v-1.183m0 1.183l9.765 6.194v-1.183L0 392.01v1.183zm0 12.239v-1.184m0 1.184l9.765 6.193v-1.183L0 404.248v1.184zm0 12.237v-1.183m0 1.183l9.765 6.193v-1.183L0 416.486v1.183z"/>
    <path fill="#7162ff" d="M0 431.619v-1.183m0 1.183l9.765 6.194v-1.184L0 430.436v1.183zm0 12.238v-1.183m0 1.183l9.765 6.194v-1.183L0 442.674v1.183zm0 12.238v-1.184m0 1.184l9.765 6.193v-1.183L0 454.911v1.184zm0 12.236v-1.183m0 1.183l9.765 6.193v-1.183L0 467.148v1.183zm0 12.239v-1.183m0 1.183l9.765 6.194v-1.183L0 479.387v1.183zm0 12.237v-1.184m9.765 6.194V499M0 492.807L9.765 499v-1.183L0 491.623v1.184zm0 12.237v-1.183m9.765 6.193v1.183M0 505.044l9.765 6.193v-1.183L0 503.861v1.183zm0 12.238v-1.183m9.765 6.193v1.184M0 517.282l9.765 6.194v-1.184L0 516.099v1.183zm9.765 17.248v1.183M0 529.519v-1.183m0 1.183l9.765 6.194v-1.183L0 528.336v1.183z"/>
    <path fill="#1cabe6" d="M0 541.774v-1.183m9.765 6.194v1.032h-.237"/>
    <path fill="#1cabe6" d="M0 541.774l9.528 6.043h.237v-1.032L0 540.591v1.183z"/>
    <path fill="#3d2d9a" d="M1.943 1.24l7.822 4.961V5.017L2.789.593 1.855 0H0v.008L1.943 1.24z"/>
</svg>
