<svg xmlns="http://www.w3.org/2000/svg" viewBox="0 0 307.617 9.8">
    <path d="M112.917,9.8l6.2-9.8h-1.2l-6.2,9.8Zm12.3,0,6.2-9.8h-1.2l-6.2,9.8Zm12.2,0,6.2-9.8h-1.2l-6.2,9.8Zm12.2,0,6.2-9.8h-1.2l-6.2,9.8Zm12.3,0,6.2-9.8h-1.2l-6.2,9.8Zm12.2,0h-1.2m1.2,0,6.2-9.8h-1.2l-6.2,9.8Zm12.2,0h-1.2m1.2,0,6.2-9.8h-1.2l-6.2,9.8Zm12.3,0h-1.2m1.2,0,6.2-9.8h-1.2l-6.2,9.8Zm12.2,0h-1.2m1.2,0,6.2-9.8h-1.2l-6.2,9.8Z" fill="#7162ff"/>
    <path d="M223.117,9.8h-1.2m1.2,0,6.2-9.8h-1.2l-6.2,9.8Zm12.2,0h-1.2m1.2,0,6.2-9.8h-1.2l-6.2,9.8Zm12.3,0h-1.2m1.2,0,6.2-9.8h-1.2l-6.2,9.8Zm12.2,0h-1.2m1.2,0,6.2-9.8h-1.2l-6.2,9.8Zm12.2,0h-1.2m1.2,0,6.2-9.8h-1.2l-6.2,9.8Zm12.3,0h-1.2m1.2,0,6.2-9.8h-1.2l-6.2,9.8Zm12.2,0h-1.2m1.2,0,6.2-9.8h-1.2l-6.2,9.8Z" fill="#1cabe6"/>
    <path d="M1.067,9.8h-1.2m1.2,0L7.267,0h-1.2l-6.2,9.8Zm12.2,0h-1.2m1.2,0,6.2-9.8h-1.2l-6.2,9.8Zm12.2,0h-1.2m1.2,0,6.2-9.8h-1.2l-6.2,9.8Zm12.3,0h-1.2m1.2,0,6.2-9.8h-1.2l-6.2,9.8Zm12.2,0h-1.2m1.2,0,6.2-9.8h-1.2l-6.2,9.8Zm12.3,0h-1.2m1.2,0,6.2-9.8h-1.2l-6.2,9.8Zm12.2,0h-1.2m1.2,0,6.2-9.8h-1.2l-6.2,9.8Zm12.2,0h-1.2m1.2,0,6.2-9.8h-1.2l-6.2,9.8Zm12.3,0h-1.2m1.2,0,6.2-9.8h-1.2l-6.2,9.8Z" fill="#3d2d9a"/>
</svg>
