<svg xmlns="http://www.w3.org/2000/svg" viewBox="0 0 302.8 9.8">
    <path d="M6.2,0,0,9.8H1.2L7.3,0Zm7.2,9.8L19.6,0H18.4L12.2,9.8Zm12.2,0L31.8,0H30.6L24.4,9.8Zm12.3,0L44.1,0H42.9L36.7,9.8Zm12.2,0L56.3,0H55.1L48.9,9.8Zm12.2,0L68.5,0H67.3L61.1,9.8Zm12.3,0L80.8,0H79.6L73.4,9.8Z" fill="#3d2d9a"/>
    <path d="M88.5,9.8,94.7,0H93.5L87.3,9.8Zm12.3,0L107,0h-1.2L99.6,9.8Zm12.2,0L119.2,0H118l-6.2,9.8Zm12.2,0L131.4,0h-1.2L124,9.8Zm12.3,0L143.7,0h-1.2l-6.2,9.8Zm12.2,0h-1.2m1.2,0L155.9,0h-1.2l-6.2,9.8Zm12.2,0h-1.2m1.2,0L168.1,0h-1.2l-6.2,9.8Zm12.3,0H173m1.2,0L180.4,0h-1.2L173,9.8Zm12.2,0h-1.2m1.2,0L192.6,0h-1.2l-6.2,9.8Z" fill="#7162ff"/>
    <path d="M198.7,9.8h-1.2m1.2,0L204.9,0h-1.2l-6.2,9.8Zm12.2,0h-1.2m1.2,0L217.1,0h-1.2l-6.2,9.8Zm12.3,0H222m1.2,0L229.4,0h-1.2L222,9.8Zm12.2,0h-1.2m1.2,0L241.6,0h-1.2l-6.2,9.8Zm12.2,0h-1.2m1.2,0L253.8,0h-1.2l-6.2,9.8Zm12.3,0h-1.2m1.2,0L266.1,0h-1.2l-6.2,9.8Zm12.2,0h-1.2m1.2,0L278.3,0h-1.2l-6.2,9.8Zm12.2,0h-1.2m1.2,0L290.5,0h-1.2l-6.2,9.8Zm12.3,0h-1.2m1.2,0L302.8,0h-1.2l-6.2,9.8Z" fill="#1cabe6"/>
</svg>
