<svg xmlns="http://www.w3.org/2000/svg" viewBox="0 0 469.61 19.68">
    <path d="M219.576 3.518a1.4 1.4 0 1 1-1.4 1.4 1.4 1.4 0 0 1 1.4-1.4m9.299.05a1.347 1.347 0 1 1-.009 0h.009m9.299.05a1.3 1.3 0 1 1-1.3 1.3 1.3 1.3 0 0 1 1.3-1.3m9.299.05a1.25 1.25 0 1 1-1.25 1.25 1.246 1.246 0 0 1 1.242-1.25h.008m9.299.05a1.2 1.2 0 1 1-1.2 1.2 1.2 1.2 0 0 1 1.2-1.2m9.299.05a1.15 1.15 0 1 1-1.149 1.151 1.146 1.146 0 0 1 1.142-1.15h.007m9.3.049a1.1 1.1 0 1 1-1.1 1.1 1.1 1.1 0 0 1 1.1-1.1m9.298.05a.959.959 0 1 1-.01 0m9.309.05a1 1 0 1 1-1 1 1 1 0 0 1 1-1m9.299.05a.95.95 0 1 1-.95.95.947.947 0 0 1 .942-.95h.008m9.299.1a.85.85 0 1 1-.85.851.851.851 0 0 1 .85-.851m9.3 0a.848.848 0 1 1-.006 0h.006m9.298.05a.8.8 0 1 1-.8.8.8.8 0 0 1 .8-.8m9.299.05a.747.747 0 1 1-.006 0h.006m9.299.05a.7.7 0 1 1-.7.7.7.7 0 0 1 .7-.7m9.299.05a.65.65 0 1 1-.649.651.647.647 0 0 1 .644-.65m9.305.049a.6.6 0 1 1-.6.6.6.6 0 0 1 .6-.6m9.299.05a.551.551 0 1 1-.55.552.549.549 0 0 1 .547-.551m9.301.049a.5.5 0 1 1-.5.5.5.5 0 0 1 .5-.5m9.299.05a.45.45 0 1 1-.45.45.449.449 0 0 1 .446-.45m9.303.05a.4.4 0 1 1-.4.4.4.4 0 0 1 .4-.4m9.3.05a.35.35 0 1 1-.351.351.35.35 0 0 1 .351-.351m9.299.05a.3.3 0 1 1-.3.3.3.3 0 0 1 .3-.3m9.299.05a.25.25 0 1 1-.25.25.25.25 0 0 1 .25-.25m9.298.05a.2.2 0 1 1-.2.2.2.2 0 0 1 .2-.2m9.299.05a.15.15 0 1 1-.149.151.149.149 0 0 1 .148-.15m9.301.049a.1.1 0 1 1-.1.1.1.1 0 0 1 .1-.1m-251.074-1.3a1.4 1.4 0 1 1-1.4 1.4 1.4 1.4 0 0 1 1.4-1.4m-9.299 0a1.4 1.4 0 1 1-1.4 1.4 1.4 1.4 0 0 1 1.4-1.4m-9.299 0a1.4 1.4 0 1 1-1.4 1.4 1.4 1.4 0 0 1 1.39-1.4h.01m-9.299 0a1.4 1.4 0 1 1-1.4 1.4 1.4 1.4 0 0 1 1.39-1.4h.01m-9.299 0a1.4 1.4 0 1 1-1.4 1.4 1.4 1.4 0 0 1 1.4-1.4m-9.299 0a1.4 1.4 0 1 1-1.4 1.4 1.4 1.4 0 0 1 1.4-1.4m-9.299 0a1.4 1.4 0 1 1-1.4 1.4 1.4 1.4 0 0 1 1.4-1.4m-9.299 0a1.4 1.4 0 1 1-1.4 1.4 1.4 1.4 0 0 1 1.39-1.4h.01m-9.299 0a1.4 1.4 0 1 1-1.4 1.4 1.4 1.4 0 0 1 1.39-1.4h.01m-9.3 0a1.4 1.4 0 1 1-1.4 1.4 1.4 1.4 0 0 1 1.4-1.4m-9.298 0a1.4 1.4 0 1 1-1.4 1.4 1.4 1.4 0 0 1 1.4-1.4m-9.299 0a1.4 1.4 0 1 1-1.4 1.4 1.4 1.4 0 0 1 1.4-1.4m-9.299 0a1.4 1.4 0 1 1-1.4 1.4 1.4 1.4 0 0 1 1.39-1.4h.01m-9.299 0a1.4 1.4 0 1 1-1.4 1.4 1.4 1.4 0 0 1 1.39-1.4h.01m-9.3 0a1.4 1.4 0 1 1-1.4 1.4 1.4 1.4 0 0 1 1.4-1.4m-9.298 0a1.4 1.4 0 1 1-1.4 1.4 1.4 1.4 0 0 1 1.4-1.4m-9.299 0a1.4 1.4 0 1 1-1.4 1.4 1.4 1.4 0 0 1 1.4-1.4m-9.299 0a1.4 1.4 0 1 1-1.4 1.4 1.4 1.4 0 0 1 1.4-1.4m-9.294 0a1.4 1.4 0 1 1-1.4 1.4 1.4 1.4 0 0 1 1.39-1.4h.01m-9.3 0a1.4 1.4 0 1 1-1.4 1.4 1.4 1.4 0 0 1 1.39-1.4h.01m-9.3 0a1.4 1.4 0 1 1-1.4 1.4 1.4 1.4 0 0 1 1.4-1.4m-9.3 0a1.4 1.4 0 1 1-1.4 1.4 1.4 1.4 0 0 1 1.4-1.4m-9.3 0a1.4 1.4 0 1 1-1.4 1.4 1.4 1.4 0 0 1 1.4-1.4m218.876 9.844a1.4 1.4 0 1 1-1.4 1.4 1.4 1.4 0 0 1 1.39-1.4h.01m9.299.05a1.35 1.35 0 1 1-1.351 1.349 1.345 1.345 0 0 1 1.341-1.349h.01m9.299.049a1.3 1.3 0 1 1-1.3 1.3 1.3 1.3 0 0 1 1.3-1.3m9.299.05a1.246 1.246 0 1 1-.008 0h.008m9.299.051a1.2 1.2 0 1 1-1.2 1.2 1.2 1.2 0 0 1 1.19-1.2h.01m9.299.05a1.15 1.15 0 1 1-1.149 1.151 1.145 1.145 0 0 1 1.141-1.149h.008m9.3.048a1.1 1.1 0 1 1-1.1 1.1 1.1 1.1 0 0 1 1.1-1.1m9.298.049a1.051 1.051 0 1 1-1.05 1.052 1.047 1.047 0 0 1 1.044-1.05h.006m9.299.048a1 1 0 1 1-1 1 1 1 0 0 1 1-1m9.299.051a.95.95 0 1 1-.95.95.947.947 0 0 1 .943-.949h.007m9.299.099a.85.85 0 1 1-.85.85.847.847 0 0 1 .845-.849m9.305-.001a.85.85 0 1 1-.851.849.847.847 0 0 1 .845-.849h.006m9.298.049a.8.8 0 1 1-.8.8.8.8 0 0 1 .8-.8m9.299.05a.75.75 0 1 1-.75.75.75.75 0 0 1 .75-.75m9.299.051a.7.7 0 1 1-.7.7.7.7 0 0 1 .7-.7m9.299.05a.65.65 0 1 1-.649.651.647.647 0 0 1 .645-.649m9.304.048a.6.6 0 1 1-.6.6.6.6 0 0 1 .6-.6m9.299.049a.551.551 0 1 1-.55.552.548.548 0 0 1 .546-.55m9.302.048a.5.5 0 1 1-.5.5.5.5 0 0 1 .5-.5m9.299.051a.45.45 0 1 1-.45.45.449.449 0 0 1 .447-.449m9.302.049a.4.4 0 1 1-.4.4.4.4 0 0 1 .4-.4m9.3.05a.35.35 0 1 1 0 .7.35.35 0 0 1 0-.7m9.299.049a.3.3 0 1 1-.3.3.3.3 0 0 1 .3-.3m9.299.05a.25.25 0 1 1-.25.25.25.25 0 0 1 .25-.25m9.298.051a.2.2 0 1 1-.2.2.2.2 0 0 1 .2-.2m9.299.05a.15.15 0 1 1-.15.15.15.15 0 0 1 .15-.15m-241.774-1.25a1.4 1.4 0 1 1-1.4 1.4 1.4 1.4 0 0 1 1.4-1.4m-9.299 0a1.4 1.4 0 1 1-1.4 1.4 1.4 1.4 0 0 1 1.4-1.4m-9.299 0a1.4 1.4 0 1 1-1.4 1.4 1.4 1.4 0 0 1 1.39-1.4h.01m-9.299 0a1.4 1.4 0 1 1-1.4 1.4 1.4 1.4 0 0 1 1.39-1.4h.01m-9.299 0a1.4 1.4 0 1 1-1.4 1.4 1.4 1.4 0 0 1 1.39-1.4h.01m-9.299 0a1.4 1.4 0 1 1-1.4 1.4 1.4 1.4 0 0 1 1.4-1.4m-9.299 0a1.4 1.4 0 1 1-1.4 1.4 1.4 1.4 0 0 1 1.4-1.4m-9.299 0a1.4 1.4 0 1 1-1.4 1.4 1.4 1.4 0 0 1 1.39-1.4h.01m-9.299 0a1.4 1.4 0 1 1-1.4 1.4 1.4 1.4 0 0 1 1.39-1.4h.01m-9.3 0a1.4 1.4 0 1 1-1.4 1.4 1.4 1.4 0 0 1 1.39-1.4h.01m-9.298 0a1.4 1.4 0 1 1-1.4 1.4 1.4 1.4 0 0 1 1.4-1.4m-9.299 0a1.4 1.4 0 1 1-1.4 1.4 1.4 1.4 0 0 1 1.4-1.4m-9.299 0a1.4 1.4 0 1 1-1.4 1.4 1.4 1.4 0 0 1 1.39-1.4h.01m-9.299 0a1.4 1.4 0 1 1-1.4 1.4 1.4 1.4 0 0 1 1.39-1.4h.01m-9.3 0a1.4 1.4 0 1 1-1.4 1.4 1.4 1.4 0 0 1 1.39-1.4h.01m-9.298 0a1.4 1.4 0 1 1-1.4 1.4 1.4 1.4 0 0 1 1.4-1.4m-9.299 0a1.4 1.4 0 1 1-1.4 1.4 1.4 1.4 0 0 1 1.4-1.4m-9.299 0a1.4 1.4 0 1 1-1.4 1.4 1.4 1.4 0 0 1 1.4-1.4m-9.294 0a1.4 1.4 0 1 1-1.4 1.4 1.4 1.4 0 0 1 1.39-1.4h.01m-9.3 0a1.4 1.4 0 1 1-1.4 1.4 1.4 1.4 0 0 1 1.39-1.4h.01m-9.3 0a1.4 1.4 0 1 1-1.4 1.4 1.4 1.4 0 0 1 1.39-1.4h.01m-9.3 0a1.4 1.4 0 1 1-1.4 1.4 1.4 1.4 0 0 1 1.4-1.4m-9.3 0a1.4 1.4 0 1 1-1.4 1.4 1.4 1.4 0 0 1 1.4-1.4m-9.3 0a1.4 1.4 0 1 1-1.4 1.4 1.4 1.4 0 0 1 1.39-1.4h.01m464.951 1.3a.1.1 0 1 1-.1.1.1.1 0 0 1 .1-.1" fill="#6cc5e9"/>
</svg>
