<svg xmlns="http://www.w3.org/2000/svg" viewBox="0 0 469.61 19.68">
    <path d="M250.034,16.162a1.4,1.4,0,1,1,1.4-1.4h0a1.4,1.4,0,0,1-1.4,1.4m-9.3-.05a1.348,1.348,0,1,1,.009,0h-.009m-9.3-.05a1.3,1.3,0,1,1,1.3-1.3,1.3,1.3,0,0,1-1.3,1.3h0m-9.3-.05a1.246,1.246,0,1,1,.008,0h-.008m-9.3-.05a1.2,1.2,0,1,1,1.2-1.2h0a1.2,1.2,0,0,1-1.2,1.2m-9.3-.05a1.15,1.15,0,1,1,1.149-1.151h0a1.146,1.146,0,0,1-1.142,1.15h-.007m-9.3-.049a1.1,1.1,0,1,1,1.1-1.1,1.1,1.1,0,0,1-1.1,1.1h0m-9.3-.05a.959.959,0,1,1,.01,0m-9.309-.05a1,1,0,1,1,1-1,1,1,0,0,1-1,1m-9.3-.05a.946.946,0,1,1,.008,0h-.008m-9.3-.1a.85.85,0,1,1,.85-.851.851.851,0,0,1-.85.851m-9.3,0a.848.848,0,1,1,.006,0h-.006m-9.3-.05a.8.8,0,1,1,.8-.8h0a.8.8,0,0,1-.8.8m-9.3-.05a.747.747,0,1,1,.006,0h-.006m-9.3-.05a.7.7,0,1,1,.7-.7.7.7,0,0,1-.7.7h0m-9.3-.05a.65.65,0,1,1,.649-.651h0a.647.647,0,0,1-.644.65h0m-9.305-.049a.6.6,0,1,1,.6-.6.6.6,0,0,1-.6.6h0m-9.3-.05a.551.551,0,1,1,.55-.552h0a.549.549,0,0,1-.547.551h0m-9.3-.049a.5.5,0,1,1,.5-.5.5.5,0,0,1-.5.5m-9.3-.05a.45.45,0,1,1,.45-.45.45.45,0,0,1-.45.45m-9.3-.05a.4.4,0,1,1,.4-.4h0a.4.4,0,0,1-.4.4m-9.3-.05a.35.35,0,1,1,.351-.351.351.351,0,0,1-.351.351h0m-9.3-.05a.3.3,0,1,1,.3-.3h0a.3.3,0,0,1-.3.3m-9.3-.05a.25.25,0,1,1,.25-.25.25.25,0,0,1-.25.25m-9.3-.05a.2.2,0,1,1,.2-.2.2.2,0,0,1-.2.2h0m-9.3-.05a.15.15,0,1,1,.149-.151h0a.149.149,0,0,1-.148.15h0m-9.3-.049a.1.1,0,1,1,.1-.1.1.1,0,0,1-.1.1h0m251.074,1.3a1.4,1.4,0,1,1,1.4-1.4h0a1.4,1.4,0,0,1-1.4,1.4m9.3,0a1.4,1.4,0,1,1,1.4-1.4h0a1.4,1.4,0,0,1-1.4,1.4m9.3,0a1.4,1.4,0,1,1,1.4-1.4h0a1.4,1.4,0,0,1-1.39,1.4h-.01m9.3,0a1.4,1.4,0,1,1,1.4-1.4h0a1.4,1.4,0,0,1-1.39,1.4h-.01m9.3,0a1.4,1.4,0,1,1,1.4-1.4h0a1.4,1.4,0,0,1-1.4,1.4m9.3,0a1.4,1.4,0,1,1,1.4-1.4h0a1.4,1.4,0,0,1-1.4,1.4m9.3,0a1.4,1.4,0,1,1,1.4-1.4h0a1.4,1.4,0,0,1-1.4,1.4m9.3,0a1.4,1.4,0,1,1,1.4-1.4h0a1.4,1.4,0,0,1-1.39,1.4h-.01m9.3,0a1.4,1.4,0,1,1,1.4-1.4h0a1.4,1.4,0,0,1-1.39,1.4h-.01m9.3,0a1.4,1.4,0,1,1,1.4-1.4,1.4,1.4,0,0,1-1.4,1.4h0m9.3,0a1.4,1.4,0,1,1,1.4-1.4,1.4,1.4,0,0,1-1.4,1.4h0m9.3,0a1.4,1.4,0,1,1,1.4-1.4,1.4,1.4,0,0,1-1.4,1.4h0m9.3,0a1.4,1.4,0,1,1,.01,0h-.01m9.3,0a1.4,1.4,0,1,1,.01,0h-.01m9.3,0a1.4,1.4,0,1,1,1.4-1.4,1.4,1.4,0,0,1-1.4,1.4h0m9.3,0a1.4,1.4,0,1,1,1.4-1.4,1.4,1.4,0,0,1-1.4,1.4h0m9.3,0a1.4,1.4,0,1,1,1.4-1.4,1.4,1.4,0,0,1-1.4,1.4h0m9.3,0a1.4,1.4,0,1,1,1.4-1.4,1.4,1.4,0,0,1-1.4,1.4h0m9.294,0a1.4,1.4,0,1,1,.01,0h-.01m9.3,0a1.4,1.4,0,1,1,.01,0h-.01m9.3,0a1.4,1.4,0,1,1,1.4-1.4h0a1.4,1.4,0,0,1-1.4,1.4m9.3,0a1.4,1.4,0,1,1,1.4-1.4h0a1.4,1.4,0,0,1-1.4,1.4m9.3,0a1.4,1.4,0,1,1,1.4-1.4,1.4,1.4,0,0,1-1.4,1.4h0M245.034,6.318a1.4,1.4,0,1,1,1.4-1.4h0a1.4,1.4,0,0,1-1.39,1.4h-.01m-9.3-.05a1.35,1.35,0,1,1,1.351-1.349h0a1.345,1.345,0,0,1-1.341,1.349h-.01m-9.3-.049a1.3,1.3,0,1,1,1.3-1.3,1.3,1.3,0,0,1-1.3,1.3h0m-9.3-.05a1.246,1.246,0,1,1,.008,0h-.008m-9.3-.051a1.2,1.2,0,1,1,.01,0h-.01m-9.3-.05a1.15,1.15,0,1,1,1.149-1.151h0a1.145,1.145,0,0,1-1.141,1.149h-.008m-9.3-.048a1.1,1.1,0,1,1,1.1-1.1,1.1,1.1,0,0,1-1.1,1.1h0m-9.3-.049a1.051,1.051,0,1,1,1.05-1.052h0a1.047,1.047,0,0,1-1.044,1.05h-.006m-9.3-.048a1,1,0,1,1,1-1,1,1,0,0,1-1,1m-9.3-.051a1.115,1.115,0,1,1,.007,0h-.007m-9.3-.1a.85.85,0,1,1,.85-.85.851.851,0,0,1-.85.85h0m-9.305,0a.848.848,0,1,1,.006,0h-.006m-9.3-.049a.8.8,0,1,1,.8-.8h0a.8.8,0,0,1-.8.8m-9.3-.05a.75.75,0,1,1,.75-.75.75.75,0,0,1-.75.75m-9.3-.051a.7.7,0,1,1,.7-.7.7.7,0,0,1-.7.7h0m-9.3-.05a.65.65,0,1,1,.649-.651h0a.647.647,0,0,1-.645.649m-9.3-.048a.6.6,0,1,1,.6-.6.6.6,0,0,1-.6.6h0m-9.3-.049a.551.551,0,1,1,.55-.552h0a.548.548,0,0,1-.546.55m-9.3-.048a.5.5,0,1,1,.5-.5.5.5,0,0,1-.5.5m-9.3-.051a.45.45,0,1,1,.45-.45.449.449,0,0,1-.45.45m-9.3-.049a.4.4,0,1,1,.4-.4h0a.4.4,0,0,1-.4.4m-9.3-.05a.35.35,0,1,1,0-.7h0a.35.35,0,1,1,0,.7m-9.3-.049a.3.3,0,1,1,.3-.3h0a.3.3,0,0,1-.3.3m-9.3-.05a.25.25,0,1,1,.25-.25.25.25,0,0,1-.25.25m-9.3-.051a.2.2,0,1,1,.2-.2.2.2,0,0,1-.2.2h0m-9.3-.05a.15.15,0,1,1,.15-.15h0a.15.15,0,0,1-.15.15m241.774,1.25a1.4,1.4,0,1,1,1.4-1.4h0a1.4,1.4,0,0,1-1.4,1.4m9.3,0a1.4,1.4,0,1,1,1.4-1.4h0a1.4,1.4,0,0,1-1.4,1.4m9.3,0a1.4,1.4,0,1,1,1.4-1.4h0a1.4,1.4,0,0,1-1.39,1.4h-.01m9.3,0a1.4,1.4,0,1,1,1.4-1.4h0a1.4,1.4,0,0,1-1.39,1.4h-.01m9.3,0a1.4,1.4,0,1,1,1.4-1.4h0a1.4,1.4,0,0,1-1.39,1.4h-.01m9.3,0a1.4,1.4,0,1,1,1.4-1.4h0a1.4,1.4,0,0,1-1.4,1.4m9.3,0a1.4,1.4,0,1,1,1.4-1.4h0a1.4,1.4,0,0,1-1.4,1.4m9.3,0a1.4,1.4,0,1,1,1.4-1.4h0a1.4,1.4,0,0,1-1.39,1.4h-.01m9.3,0a1.4,1.4,0,1,1,1.4-1.4h0a1.4,1.4,0,0,1-1.39,1.4h-.01m9.3,0a1.4,1.4,0,1,1,1.4-1.4h0a1.4,1.4,0,0,1-1.39,1.4h-.01m9.3,0a1.4,1.4,0,1,1,1.4-1.4,1.4,1.4,0,0,1-1.4,1.4h0m9.3,0a1.4,1.4,0,1,1,1.4-1.4,1.4,1.4,0,0,1-1.4,1.4h0m9.3,0a1.4,1.4,0,1,1,.01,0h-.01m9.3,0a1.4,1.4,0,1,1,.01,0h-.01m9.3,0a1.4,1.4,0,1,1,.01,0h-.01m9.3,0a1.4,1.4,0,1,1,1.4-1.4,1.4,1.4,0,0,1-1.4,1.4h0m9.3,0a1.4,1.4,0,1,1,1.4-1.4,1.4,1.4,0,0,1-1.4,1.4h0m9.3,0a1.4,1.4,0,1,1,1.4-1.4,1.4,1.4,0,0,1-1.4,1.4h0m9.294,0a1.4,1.4,0,1,1,.01,0h-.01m9.3,0a1.4,1.4,0,1,1,.01,0h-.01m9.3,0a1.4,1.4,0,1,1,1.4-1.4h0a1.4,1.4,0,0,1-1.39,1.4h-.01m9.3,0a1.4,1.4,0,1,1,1.4-1.4h0a1.4,1.4,0,0,1-1.4,1.4m9.3,0a1.4,1.4,0,1,1,1.4-1.4h0a1.4,1.4,0,0,1-1.4,1.4m9.3,0a1.4,1.4,0,1,1,1.4-1.4h0a1.4,1.4,0,0,1-1.39,1.4h-.01M3.259,5.018a.1.1,0,1,1,.1-.1.1.1,0,0,1-.1.1h0" fill="#ddd"/>
</svg>
