<svg xmlns="http://www.w3.org/2000/svg" viewBox="0 0 19.682 469.614">
  <path d="M16.163,219.576a1.4,1.4,0,1,1-1.4-1.4h0a1.4,1.4,0,0,1,1.4,1.4m-.05,9.3a1.348,1.348,0,1,1,0-.009v.009m-.05,9.3a1.3,1.3,0,1,1-1.3-1.3,1.3,1.3,0,0,1,1.3,1.3h0m-.05,9.3a1.246,1.246,0,1,1,0-.008h0v.008m-.05,9.3a1.2,1.2,0,1,1-1.2-1.2h0a1.2,1.2,0,0,1,1.2,1.2m-.05,9.3a1.349,1.349,0,1,1,0-.007h0v.007m-.049,9.3a1.1,1.1,0,1,1-1.1-1.1,1.1,1.1,0,0,1,1.1,1.1h0m-.05,9.3a.959.959,0,1,1,0-.01v0m-.05,9.3a1,1,0,1,1-1-1,1,1,0,0,1,1,1m-.05,9.3a.95.95,0,1,1-.95-.95h0a.947.947,0,0,1,.95.942v.008m-.1,9.3a.85.85,0,1,1-.851-.85.851.851,0,0,1,.851.85m0,9.3a.848.848,0,1,1,0-.006v.006m-.05,9.3a.8.8,0,1,1-.8-.8.8.8,0,0,1,.8.8h0m-.05,9.3a.747.747,0,1,1,0-.006v.006m-.05,9.3a.7.7,0,1,1-.7-.7h0a.7.7,0,0,1,.7.7m-.05,9.3a.65.65,0,1,1-.651-.649.65.65,0,0,1,.651.649h0v0m-.049,9.3a.6.6,0,1,1-.6-.6h0a.6.6,0,0,1,.6.6m-.05,9.3a.551.551,0,1,1-.552-.55.551.551,0,0,1,.552.55h0m-.049,9.3a.5.5,0,1,1-.5-.5.5.5,0,0,1,.5.5m-.05,9.3a.45.45,0,1,1-.45-.45h0a.449.449,0,0,1,.45.446m-.05,9.3a.4.4,0,1,1-.4-.4.4.4,0,0,1,.4.4h0m-.05,9.3a.35.35,0,1,1-.351-.351.351.351,0,0,1,.351.351v0m-.05,9.3a.3.3,0,1,1-.3-.3h0a.3.3,0,0,1,.3.3m-.05,9.3a.25.25,0,1,1-.25-.25.25.25,0,0,1,.25.25m-.05,9.3a.2.2,0,1,1-.2-.2.2.2,0,0,1,.2.2h0m-.05,9.3a.15.15,0,1,1-.151-.149.15.15,0,0,1,.151.149h0m-.049,9.3a.1.1,0,1,1-.1-.1.1.1,0,0,1,.1.1h0m1.3-251.074a1.4,1.4,0,1,1-1.4-1.4h0a1.4,1.4,0,0,1,1.4,1.4m0-9.3a1.4,1.4,0,1,1-1.4-1.4h0a1.4,1.4,0,0,1,1.4,1.4m0-9.3a1.4,1.4,0,1,1-1.4-1.4h0a1.4,1.4,0,0,1,1.4,1.39v.01m0-9.3a1.4,1.4,0,1,1-1.4-1.4h0a1.4,1.4,0,0,1,1.4,1.39v.01m0-9.3a1.4,1.4,0,1,1-1.4-1.4h0a1.4,1.4,0,0,1,1.4,1.4m0-9.3a1.4,1.4,0,1,1-1.4-1.4h0a1.4,1.4,0,0,1,1.4,1.4m0-9.3a1.4,1.4,0,1,1-1.4-1.4h0a1.4,1.4,0,0,1,1.4,1.4m0-9.3a1.4,1.4,0,1,1-1.4-1.4h0a1.4,1.4,0,0,1,1.4,1.39v.01m0-9.3a1.4,1.4,0,1,1-1.4-1.4h0a1.4,1.4,0,0,1,1.4,1.39v.01m0-9.3a1.4,1.4,0,1,1-1.4-1.4h0a1.4,1.4,0,0,1,1.4,1.4m0-9.3a1.4,1.4,0,1,1-1.4-1.4h0a1.4,1.4,0,0,1,1.4,1.4m0-9.3a1.4,1.4,0,1,1-1.4-1.4h0a1.4,1.4,0,0,1,1.4,1.4m0-9.3a1.4,1.4,0,1,1-1.4-1.4h0a1.4,1.4,0,0,1,1.4,1.39v.01m0-9.3a1.4,1.4,0,1,1-1.4-1.4h0a1.4,1.4,0,0,1,1.4,1.39v.01m0-9.3a1.4,1.4,0,1,1-1.4-1.4h0a1.4,1.4,0,0,1,1.4,1.4m0-9.3a1.4,1.4,0,1,1-1.4-1.4h0a1.4,1.4,0,0,1,1.4,1.4m0-9.3a1.4,1.4,0,1,1-1.4-1.4h0a1.4,1.4,0,0,1,1.4,1.4m0-9.3a1.4,1.4,0,1,1-1.4-1.4h0a1.4,1.4,0,0,1,1.4,1.4m0-9.3a1.4,1.4,0,1,1-1.4-1.4h0a1.4,1.4,0,0,1,1.4,1.39v.01m0-9.3a1.4,1.4,0,1,1-1.4-1.4h0a1.4,1.4,0,0,1,1.4,1.39v.01m0-9.3a1.4,1.4,0,1,1-1.4-1.4h0a1.4,1.4,0,0,1,1.4,1.4m0-9.3a1.4,1.4,0,1,1-1.4-1.4h0a1.4,1.4,0,0,1,1.4,1.4m0-9.3a1.4,1.4,0,1,1-1.4-1.4h0a1.4,1.4,0,0,1,1.4,1.4M6.319,224.576a1.4,1.4,0,1,1-1.4-1.4h0a1.4,1.4,0,0,1,1.4,1.39v.01m-.05,9.3a1.35,1.35,0,1,1-1.349-1.351h0a1.345,1.345,0,0,1,1.349,1.341h0v.01m-.049,9.3a1.3,1.3,0,1,1-1.3-1.3,1.3,1.3,0,0,1,1.3,1.3h0m-.05,9.3a1.246,1.246,0,1,1,0-.008v.008m-.051,9.3a1.2,1.2,0,1,1-1.2-1.2h0a1.2,1.2,0,0,1,1.2,1.19v.01m-.05,9.3a1.571,1.571,0,1,1,0-.008h0v.008m-.048,9.3a1.1,1.1,0,1,1-1.1-1.1,1.1,1.1,0,0,1,1.1,1.1h0m-.049,9.3a1.3,1.3,0,1,1,0-.011h0v.006m-.048,9.3a1,1,0,1,1-1-1,1,1,0,0,1,1,1m-.051,9.3a.95.95,0,1,1-.95-.95h0a.947.947,0,0,1,.949.943v.007m-.1,9.3a.85.85,0,1,1-.85-.85.851.851,0,0,1,.85.85h0m0,9.305a.85.85,0,1,1-.849-.851h0a.847.847,0,0,1,.849.845h0v.006m-.049,9.3a.8.8,0,1,1-.8-.8.8.8,0,0,1,.8.8h0m-.05,9.3a.75.75,0,1,1-.75-.75.75.75,0,0,1,.75.75m-.051,9.3a.7.7,0,1,1-.7-.7h0a.7.7,0,0,1,.7.7m-.05,9.3a.65.65,0,1,1-.651-.649.65.65,0,0,1,.651.649h0m-.048,9.3a.6.6,0,1,1-.6-.6h0a.6.6,0,0,1,.6.6m-.049,9.3a.551.551,0,1,1-.552-.55.551.551,0,0,1,.552.55h0m-.048,9.3a.5.5,0,1,1-.5-.5.5.5,0,0,1,.5.5m-.051,9.3a.45.45,0,1,1-.45-.45h0a.449.449,0,0,1,.449.447m-.049,9.3a.4.4,0,1,1-.4-.4.4.4,0,0,1,.4.4h0m-.05,9.3a.35.35,0,0,1-.7,0h0a.35.35,0,0,1,.7,0m-.049,9.3a.3.3,0,1,1-.3-.3h0a.3.3,0,0,1,.3.3m-.05,9.3a.25.25,0,1,1-.25-.25.25.25,0,0,1,.25.25m-.051,9.3a.2.2,0,1,1-.2-.2.2.2,0,0,1,.2.2h0m-.05,9.3a.15.15,0,1,1-.15-.15h0a.15.15,0,0,1,.15.15m1.25-241.774a1.4,1.4,0,1,1-1.4-1.4h0a1.4,1.4,0,0,1,1.4,1.4m0-9.3a1.4,1.4,0,1,1-1.4-1.4h0a1.4,1.4,0,0,1,1.4,1.4m0-9.3a1.4,1.4,0,1,1-1.4-1.4h0a1.4,1.4,0,0,1,1.4,1.39v.01m0-9.3a1.4,1.4,0,1,1-1.4-1.4h0a1.4,1.4,0,0,1,1.4,1.39v.01m0-9.3a1.4,1.4,0,1,1-1.4-1.4h0a1.4,1.4,0,0,1,1.4,1.39v.01m0-9.3a1.4,1.4,0,1,1-1.4-1.4h0a1.4,1.4,0,0,1,1.4,1.4m0-9.3a1.4,1.4,0,1,1-1.4-1.4h0a1.4,1.4,0,0,1,1.4,1.4m0-9.3a1.4,1.4,0,1,1-1.4-1.4h0a1.4,1.4,0,0,1,1.4,1.39v.01m0-9.3a1.4,1.4,0,1,1-1.4-1.4h0a1.4,1.4,0,0,1,1.4,1.39v.01m0-9.3a1.4,1.4,0,1,1-1.4-1.4h0a1.4,1.4,0,0,1,1.4,1.39v.01m0-9.3a1.4,1.4,0,1,1-1.4-1.4h0a1.4,1.4,0,0,1,1.4,1.4m0-9.3a1.4,1.4,0,1,1-1.4-1.4h0a1.4,1.4,0,0,1,1.4,1.4m0-9.3a1.4,1.4,0,1,1-1.4-1.4h0a1.4,1.4,0,0,1,1.4,1.39v.01m0-9.3a1.4,1.4,0,1,1-1.4-1.4h0a1.4,1.4,0,0,1,1.4,1.39v.01m0-9.3a1.4,1.4,0,1,1-1.4-1.4h0a1.4,1.4,0,0,1,1.4,1.39v.01m0-9.3a1.4,1.4,0,1,1-1.4-1.4h0a1.4,1.4,0,0,1,1.4,1.4m0-9.3a1.4,1.4,0,1,1-1.4-1.4h0a1.4,1.4,0,0,1,1.4,1.4m0-9.3a1.4,1.4,0,1,1-1.4-1.4h0a1.4,1.4,0,0,1,1.4,1.4m0-9.3a1.4,1.4,0,1,1-1.4-1.4h0a1.4,1.4,0,0,1,1.4,1.39v.01m0-9.3a1.4,1.4,0,1,1-1.4-1.4h0a1.4,1.4,0,0,1,1.4,1.39v.01m0-9.3a1.4,1.4,0,1,1-1.4-1.4h0a1.4,1.4,0,0,1,1.4,1.39v.01m0-9.3a1.4,1.4,0,1,1-1.4-1.4h0a1.4,1.4,0,0,1,1.4,1.4m0-9.3a1.4,1.4,0,1,1-1.4-1.4h0a1.4,1.4,0,0,1,1.4,1.4m0-9.3A1.4,1.4,0,1,1,4.919,0h0a1.4,1.4,0,0,1,1.4,1.39V1.4m-1.3,464.951a.1.1,0,1,1-.1-.1.1.1,0,0,1,.1.1h0" fill="#a97cca"/>
</svg>
