<svg xmlns="http://www.w3.org/2000/svg" viewBox="0 0 21.961 745.757">
    <path d="M17.885 433.875a1.4 1.4 0 1 1-1.4-1.4 1.4 1.4 0 0 1 1.4 1.4m-.051 17.299a1.35 1.35 0 1 1-1.35-1.351 1.345 1.345 0 0 1 1.35 1.351m-.05 17.299a1.3 1.3 0 1 1-1.3-1.3 1.295 1.295 0 0 1 1.3 1.3m-.05 17.299a1.25 1.25 0 1 1-1.25-1.25 1.246 1.246 0 0 1 1.25 1.25m-.05 17.299a1.2 1.2 0 1 1-1.2-1.2 1.2 1.2 0 0 1 1.2 1.2m-.049 17.299a1.151 1.151 0 1 1-1.15-1.149 1.146 1.146 0 0 1 1.15 1.149m-.051 17.299a1.1 1.1 0 1 1-1.1-1.1 1.1 1.1 0 0 1 1.1 1.1m-.05 17.299a1.05 1.05 0 1 1-1.05-1.05 1.047 1.047 0 0 1 1.05 1.05m-.05 17.299a1 1 0 1 1-1-1 1 1 0 0 1 1 1m-.05 17.299a.95.95 0 1 1-.95-.95.948.948 0 0 1 .95.95m-.1 17.299a.85.85 0 1 1-.85-.85.848.848 0 0 1 .85.85m0 17.299a.85.85 0 1 1-.85-.85.847.847 0 0 1 .85.85m-.05 17.299a.8.8 0 1 1-.8-.8.8.8 0 0 1 .8.8m-.05 17.299a.75.75 0 1 1-.75-.75.747.747 0 0 1 .75.75m-.05 17.299a.7.7 0 1 1-.7-.7.7.7 0 0 1 .7.7m-.049 17.299a.651.651 0 1 1-.65-.649.648.648 0 0 1 .65.649m-.051 17.299a.6.6 0 1 1-.6-.6.6.6 0 0 1 .6.6m-.05 17.3a.55.55 0 1 1-.55-.551.548.548 0 0 1 .55.551m-.05 17.298a.5.5 0 1 1-.5-.5.5.5 0 0 1 .5.5m.901-328.681a1.4 1.4 0 1 1-1.4-1.4 1.4 1.4 0 0 1 1.4 1.4m0-17.299a1.4 1.4 0 1 1-1.4-1.4 1.4 1.4 0 0 1 1.4 1.4m0-17.299a1.4 1.4 0 1 1-1.4-1.4 1.395 1.395 0 0 1 1.4 1.4m0-17.299a1.4 1.4 0 1 1-1.4-1.4 1.395 1.395 0 0 1 1.4 1.4m0-17.3a1.4 1.4 0 1 1-1.4-1.4 1.4 1.4 0 0 1 1.4 1.4m0-17.298a1.4 1.4 0 1 1-1.4-1.4 1.4 1.4 0 0 1 1.4 1.4m0-17.299a1.4 1.4 0 1 1-1.4-1.4 1.4 1.4 0 0 1 1.4 1.4m0-17.299a1.4 1.4 0 1 1-1.4-1.4 1.395 1.395 0 0 1 1.4 1.4m0-17.299a1.4 1.4 0 1 1-1.4-1.4 1.395 1.395 0 0 1 1.4 1.4m0-17.3a1.4 1.4 0 1 1-1.4-1.4 1.4 1.4 0 0 1 1.4 1.4m0-17.298a1.4 1.4 0 1 1-1.4-1.4 1.4 1.4 0 0 1 1.4 1.4m0-17.299a1.4 1.4 0 1 1-1.4-1.4 1.4 1.4 0 0 1 1.4 1.4m0-17.299a1.4 1.4 0 1 1-1.4-1.4 1.395 1.395 0 0 1 1.4 1.4m0-17.299a1.4 1.4 0 1 1-1.4-1.4 1.395 1.395 0 0 1 1.4 1.4m0-17.3a1.4 1.4 0 1 1-1.4-1.4 1.4 1.4 0 0 1 1.4 1.4m0-17.299a1.4 1.4 0 1 1-1.4-1.4 1.4 1.4 0 0 1 1.4 1.4m0-17.298a1.4 1.4 0 1 1-1.4-1.4 1.4 1.4 0 0 1 1.4 1.4m0-17.299a1.4 1.4 0 1 1-1.4-1.4 1.395 1.395 0 0 1 1.4 1.4m0-17.299a1.4 1.4 0 1 1-1.4-1.4 1.395 1.395 0 0 1 1.4 1.4m0-17.3a1.4 1.4 0 1 1-1.4-1.4 1.4 1.4 0 0 1 1.4 1.4m0-17.294a1.4 1.4 0 1 1-1.4-1.4 1.4 1.4 0 0 1 1.4 1.4m0-17.3a1.4 1.4 0 1 1-1.4-1.4 1.4 1.4 0 0 1 1.4 1.4m0-17.3a1.4 1.4 0 1 1-1.4-1.4 1.395 1.395 0 0 1 1.4 1.4m0-17.3a1.4 1.4 0 1 1-1.4-1.4 1.395 1.395 0 0 1 1.4 1.4m0-17.3a1.4 1.4 0 1 1-1.4-1.4 1.4 1.4 0 0 1 1.4 1.4M6.931 424.875a1.4 1.4 0 1 1-1.4-1.4 1.4 1.4 0 0 1 1.4 1.4m-.049 17.299a1.35 1.35 0 1 1-1.351-1.351 1.346 1.346 0 0 1 1.351 1.351m-.05 17.299a1.3 1.3 0 1 1-1.3-1.3 1.3 1.3 0 0 1 1.3 1.3m-.051 17.299a1.25 1.25 0 1 1-1.25-1.25 1.246 1.246 0 0 1 1.25 1.25m-.05 17.299a1.2 1.2 0 1 1-1.2-1.2 1.2 1.2 0 0 1 1.2 1.2m-.05 17.299a1.15 1.15 0 1 1-1.15-1.149 1.146 1.146 0 0 1 1.15 1.149m-.049 17.299a1.1 1.1 0 1 1-1.1-1.1 1.1 1.1 0 0 1 1.1 1.1m-.05 17.299a1.051 1.051 0 1 1-1.051-1.05 1.048 1.048 0 0 1 1.051 1.05m-.051 17.299a1 1 0 1 1-1-1 1 1 0 0 1 1 1m-.05 17.299a.95.95 0 1 1-.95-.95.947.947 0 0 1 .95.95m-.099 17.299a.85.85 0 1 1-.851-.85.848.848 0 0 1 .851.85m0 17.299a.85.85 0 1 1-.851-.85.848.848 0 0 1 .851.85m-.05 17.299a.8.8 0 1 1-.8-.8.8.8 0 0 1 .8.8m-.051 17.299a.75.75 0 1 1-.75-.75.747.747 0 0 1 .75.75m-.05 17.299a.7.7 0 1 1-.7-.7.7.7 0 0 1 .7.7m-.05 17.299a.65.65 0 1 1-.65-.649.647.647 0 0 1 .65.649m-.049 17.299a.6.6 0 1 1-.6-.6.6.6 0 0 1 .6.6m-.05 17.3a.551.551 0 1 1-.551-.551.549.549 0 0 1 .551.551m-.051 17.298a.5.5 0 1 1-.5-.5.5.5 0 0 1 .5.5m.9-328.681a1.4 1.4 0 1 1-1.4-1.4 1.4 1.4 0 0 1 1.4 1.4m0-17.299a1.4 1.4 0 1 1-1.4-1.4 1.4 1.4 0 0 1 1.4 1.4m0-17.299a1.4 1.4 0 1 1-1.4-1.4 1.395 1.395 0 0 1 1.4 1.4m0-17.299a1.4 1.4 0 1 1-1.4-1.4 1.395 1.395 0 0 1 1.4 1.4m0-17.3a1.4 1.4 0 1 1-1.4-1.4 1.4 1.4 0 0 1 1.4 1.4m0-17.298a1.4 1.4 0 1 1-1.4-1.4 1.4 1.4 0 0 1 1.4 1.4m0-17.299a1.4 1.4 0 1 1-1.4-1.4 1.4 1.4 0 0 1 1.4 1.4m0-17.299a1.4 1.4 0 1 1-1.4-1.4 1.395 1.395 0 0 1 1.4 1.4m0-17.299a1.4 1.4 0 1 1-1.4-1.4 1.395 1.395 0 0 1 1.4 1.4m0-17.3a1.4 1.4 0 1 1-1.4-1.4 1.4 1.4 0 0 1 1.4 1.4m0-17.298a1.4 1.4 0 1 1-1.4-1.4 1.4 1.4 0 0 1 1.4 1.4m0-17.299a1.4 1.4 0 1 1-1.4-1.4 1.4 1.4 0 0 1 1.4 1.4m0-17.299a1.4 1.4 0 1 1-1.4-1.4 1.395 1.395 0 0 1 1.4 1.4m0-17.299a1.4 1.4 0 1 1-1.4-1.4 1.395 1.395 0 0 1 1.4 1.4m0-17.3a1.4 1.4 0 1 1-1.4-1.4 1.4 1.4 0 0 1 1.4 1.4m0-17.299a1.4 1.4 0 1 1-1.4-1.4 1.4 1.4 0 0 1 1.4 1.4m0-17.298a1.4 1.4 0 1 1-1.4-1.4 1.4 1.4 0 0 1 1.4 1.4m0-17.299a1.4 1.4 0 1 1-1.4-1.4 1.395 1.395 0 0 1 1.4 1.4m0-17.299a1.4 1.4 0 1 1-1.4-1.4 1.395 1.395 0 0 1 1.4 1.4m0-17.3a1.4 1.4 0 1 1-1.4-1.4 1.4 1.4 0 0 1 1.4 1.4m0-17.294a1.4 1.4 0 1 1-1.4-1.4 1.4 1.4 0 0 1 1.4 1.4m0-17.3a1.4 1.4 0 1 1-1.4-1.4 1.4 1.4 0 0 1 1.4 1.4m0-17.3a1.4 1.4 0 1 1-1.4-1.4 1.395 1.395 0 0 1 1.4 1.4m0-17.3a1.4 1.4 0 1 1-1.4-1.4 1.395 1.395 0 0 1 1.4 1.4" fill="#510c76"/>
</svg>
