<svg xmlns="http://www.w3.org/2000/svg" viewBox="0 0 19.682 469.614">
  <path d="M3.519 250.038a1.4 1.4 0 1 1 1.4 1.4 1.4 1.4 0 0 1-1.4-1.4m.05-9.299a1.347 1.347 0 1 1 0 .009v-.009m.05-9.299a1.3 1.3 0 1 1 1.3 1.3 1.3 1.3 0 0 1-1.3-1.3m.05-9.299a1.25 1.25 0 1 1 1.25 1.25 1.246 1.246 0 0 1-1.25-1.242v-.008m.05-9.299a1.2 1.2 0 1 1 1.2 1.2 1.2 1.2 0 0 1-1.2-1.2m.05-9.299a1.15 1.15 0 1 1 1.151 1.149 1.146 1.146 0 0 1-1.15-1.142v-.007m.049-9.3a1.1 1.1 0 1 1 1.1 1.1 1.1 1.1 0 0 1-1.1-1.1m.05-9.298a.959.959 0 1 1 0 .01v-.005m.05-9.304a1 1 0 1 1 1 1 1 1 0 0 1-1-1m.05-9.299a.95.95 0 1 1 .95.95.947.947 0 0 1-.95-.942v-.008m.1-9.299a.85.85 0 1 1 .851.85.851.851 0 0 1-.851-.85m0-9.3a.848.848 0 1 1 0 .006v-.006m.05-9.298a.8.8 0 1 1 .8.8.8.8 0 0 1-.8-.8m.05-9.299a.747.747 0 1 1 0 .006v-.006m.05-9.299a.7.7 0 1 1 .7.7.7.7 0 0 1-.7-.7m.05-9.299a.65.65 0 1 1 .651.649.647.647 0 0 1-.65-.644v-.005m.049-9.3a.6.6 0 1 1 .6.6.6.6 0 0 1-.6-.6m.05-9.299a.551.551 0 1 1 .552.55.549.549 0 0 1-.551-.547m.049-9.301a.5.5 0 1 1 .5.5.5.5 0 0 1-.5-.5m.05-9.299a.45.45 0 1 1 .45.45.449.449 0 0 1-.45-.446m.05-9.303a.4.4 0 1 1 .4.4.4.4 0 0 1-.4-.4m.05-9.3a.35.35 0 1 1 .351.351.35.35 0 0 1-.351-.351m.05-9.299a.3.3 0 1 1 .3.3.3.3 0 0 1-.3-.3m.05-9.299a.25.25 0 1 1 .25.25.25.25 0 0 1-.25-.25m.05-9.298a.2.2 0 1 1 .2.2.2.2 0 0 1-.2-.2m.05-9.299a.15.15 0 1 1 .151.149.149.149 0 0 1-.15-.148m.049-9.301a.1.1 0 1 1 .1.1.1.1 0 0 1-.1-.1m-1.3 251.074a1.4 1.4 0 1 1 1.4 1.4 1.4 1.4 0 0 1-1.4-1.4m0 9.299a1.4 1.4 0 1 1 1.4 1.4 1.4 1.4 0 0 1-1.4-1.4m0 9.299a1.4 1.4 0 1 1 1.4 1.4 1.4 1.4 0 0 1-1.4-1.39v-.01m0 9.299a1.4 1.4 0 1 1 1.4 1.4 1.4 1.4 0 0 1-1.4-1.39v-.01m0 9.299a1.4 1.4 0 1 1 1.4 1.4 1.4 1.4 0 0 1-1.4-1.4m0 9.299a1.4 1.4 0 1 1 1.4 1.4 1.4 1.4 0 0 1-1.4-1.4m0 9.299a1.4 1.4 0 1 1 1.4 1.4 1.4 1.4 0 0 1-1.4-1.4m0 9.299a1.4 1.4 0 1 1 1.4 1.4 1.4 1.4 0 0 1-1.4-1.39v-.01m0 9.299a1.4 1.4 0 1 1 1.4 1.4 1.4 1.4 0 0 1-1.4-1.39v-.01m0 9.3a1.4 1.4 0 1 1 1.4 1.4 1.4 1.4 0 0 1-1.4-1.4m0 9.298a1.4 1.4 0 1 1 1.4 1.4 1.4 1.4 0 0 1-1.4-1.4m0 9.299a1.4 1.4 0 1 1 1.4 1.4 1.4 1.4 0 0 1-1.4-1.4m0 9.299a1.4 1.4 0 1 1 1.4 1.4 1.4 1.4 0 0 1-1.4-1.39v-.01m0 9.299a1.4 1.4 0 1 1 1.4 1.4 1.4 1.4 0 0 1-1.4-1.39v-.01m0 9.3a1.4 1.4 0 1 1 1.4 1.4 1.4 1.4 0 0 1-1.4-1.4m0 9.298a1.4 1.4 0 1 1 1.4 1.4 1.4 1.4 0 0 1-1.4-1.4m0 9.299a1.4 1.4 0 1 1 1.4 1.4 1.4 1.4 0 0 1-1.4-1.4m0 9.299a1.4 1.4 0 1 1 1.4 1.4 1.4 1.4 0 0 1-1.4-1.4m0 9.299a1.4 1.4 0 1 1 1.4 1.4 1.4 1.4 0 0 1-1.4-1.39v-.01m0 9.299a1.4 1.4 0 1 1 1.4 1.4 1.4 1.4 0 0 1-1.4-1.39v-.01m0 9.3a1.4 1.4 0 1 1 1.4 1.4 1.4 1.4 0 0 1-1.4-1.4m0 9.299a1.4 1.4 0 1 1 1.4 1.4 1.4 1.4 0 0 1-1.4-1.4m0 9.298a1.4 1.4 0 1 1 1.4 1.4 1.4 1.4 0 0 1-1.4-1.4m9.844-218.877a1.4 1.4 0 1 1 1.4 1.4 1.4 1.4 0 0 1-1.4-1.39v-.01m.05-9.299a1.35 1.35 0 1 1 1.349 1.351 1.345 1.345 0 0 1-1.349-1.341v-.01m.049-9.299a1.3 1.3 0 1 1 1.3 1.3 1.3 1.3 0 0 1-1.3-1.3m.05-9.299a1.246 1.246 0 1 1 0 .008v-.008m.051-9.299a1.2 1.2 0 1 1 1.2 1.2 1.2 1.2 0 0 1-1.2-1.19v-.01m.05-9.299a1.15 1.15 0 1 1 1.151 1.149 1.145 1.145 0 0 1-1.149-1.141v-.008m.048-9.3a1.1 1.1 0 1 1 1.1 1.1 1.1 1.1 0 0 1-1.1-1.1m.049-9.298A1.051 1.051 0 1 1 14.764 181a1.047 1.047 0 0 1-1.05-1.044v-.006m.048-9.304a1 1 0 1 1 1 1 1 1 0 0 1-1-1m.051-9.299a.95.95 0 1 1 .95.95.947.947 0 0 1-.949-.943v-.007m.099-9.299a.85.85 0 1 1 .85.85.847.847 0 0 1-.849-.845m-.001-9.305a.85.85 0 1 1 .849.851.847.847 0 0 1-.849-.845v-.006m.049-9.298a.8.8 0 1 1 .8.8.8.8 0 0 1-.8-.8m.05-9.299a.75.75 0 1 1 .75.75.75.75 0 0 1-.75-.75m.051-9.299a.7.7 0 1 1 .7.7.7.7 0 0 1-.7-.7m.05-9.299a.65.65 0 1 1 .651.649.647.647 0 0 1-.649-.645m.048-9.304a.6.6 0 1 1 .6.6.6.6 0 0 1-.6-.6m.049-9.299a.551.551 0 1 1 .552.55.548.548 0 0 1-.55-.546m.048-9.302a.5.5 0 1 1 .5.5.5.5 0 0 1-.5-.5m.051-9.299a.45.45 0 1 1 .45.45.449.449 0 0 1-.449-.447m.049-9.302a.4.4 0 1 1 .4.4.4.4 0 0 1-.4-.4m.05-9.3a.35.35 0 1 1 .7 0 .35.35 0 0 1-.7 0m.049-9.299a.3.3 0 1 1 .3.3.3.3 0 0 1-.3-.3m.05-9.299a.25.25 0 1 1 .25.25.25.25 0 0 1-.25-.25m.051-9.298a.2.2 0 1 1 .2.2.2.2 0 0 1-.2-.2m.05-9.299a.15.15 0 1 1 .15.15.15.15 0 0 1-.15-.15m-1.25 241.774a1.4 1.4 0 1 1 1.4 1.4 1.4 1.4 0 0 1-1.4-1.4m0 9.299a1.4 1.4 0 1 1 1.4 1.4 1.4 1.4 0 0 1-1.4-1.4m0 9.299a1.4 1.4 0 1 1 1.4 1.4 1.4 1.4 0 0 1-1.4-1.39v-.01m0 9.299a1.4 1.4 0 1 1 1.4 1.4 1.4 1.4 0 0 1-1.4-1.39v-.01m0 9.299a1.4 1.4 0 1 1 1.4 1.4 1.4 1.4 0 0 1-1.4-1.39v-.01m0 9.299a1.4 1.4 0 1 1 1.4 1.4 1.4 1.4 0 0 1-1.4-1.4m0 9.299a1.4 1.4 0 1 1 1.4 1.4 1.4 1.4 0 0 1-1.4-1.4m0 9.299a1.4 1.4 0 1 1 1.4 1.4 1.4 1.4 0 0 1-1.4-1.39v-.01m0 9.299a1.4 1.4 0 1 1 1.4 1.4 1.4 1.4 0 0 1-1.4-1.39v-.01m0 9.3a1.4 1.4 0 1 1 1.4 1.4 1.4 1.4 0 0 1-1.4-1.39v-.01m0 9.298a1.4 1.4 0 1 1 1.4 1.4 1.4 1.4 0 0 1-1.4-1.4m0 9.299a1.4 1.4 0 1 1 1.4 1.4 1.4 1.4 0 0 1-1.4-1.4m0 9.299a1.4 1.4 0 1 1 1.4 1.4 1.4 1.4 0 0 1-1.4-1.39v-.01m0 9.299a1.4 1.4 0 1 1 1.4 1.4 1.4 1.4 0 0 1-1.4-1.39v-.01m0 9.3a1.4 1.4 0 1 1 1.4 1.4 1.4 1.4 0 0 1-1.4-1.39v-.01m0 9.298a1.4 1.4 0 1 1 1.4 1.4 1.4 1.4 0 0 1-1.4-1.4m0 9.299a1.4 1.4 0 1 1 1.4 1.4 1.4 1.4 0 0 1-1.4-1.4m0 9.299a1.4 1.4 0 1 1 1.4 1.4 1.4 1.4 0 0 1-1.4-1.4m0 9.299a1.4 1.4 0 1 1 1.4 1.4 1.4 1.4 0 0 1-1.4-1.39v-.01m0 9.299a1.4 1.4 0 1 1 1.4 1.4 1.4 1.4 0 0 1-1.4-1.39v-.01m0 9.3a1.4 1.4 0 1 1 1.4 1.4 1.4 1.4 0 0 1-1.4-1.39v-.01m0 9.299a1.4 1.4 0 1 1 1.4 1.4 1.4 1.4 0 0 1-1.4-1.4m0 9.298a1.4 1.4 0 1 1 1.4 1.4 1.4 1.4 0 0 1-1.4-1.4m0 9.299a1.4 1.4 0 1 1 1.4 1.4 1.4 1.4 0 0 1-1.4-1.39v-.01m1.3-464.951a.1.1 0 1 1 .1.1.1.1 0 0 1-.1-.1" fill="#ddd"/>
</svg>
