<svg xmlns="http://www.w3.org/2000/svg" viewBox="0 0 256.589 319.339">
  <path d="M54.261 0l.508 113.7M2.692 0l.28 62.6M65.723 0l.621 138.829M13.3 0l.269 60.247M75.466 0l.59 131.99M23.038 0l.431 96.408M84.9 0l.717 160.334M33.336 0l.408 91.237M95.179 0l.685 153.177M42.751 0l.549 121.6M104.529 0l.83 185.573M114.288 0l.8 179.725M124.046 0l.912 203.877M133.805 0l.881 197.029M144.783 0l.991 221.45M154.542 0l.965 215.6M164.3 0l1.072 239.754M174.06 0l1.04 231.906M183.818 0l1.146 256.058M193.577 0l1.11 248.21M203.348 0l1.236 276.355M224.374 0l1.316 294.006M244.867 0l1.417 316.63M213.661 0l1.209 270.174M234.688 0l1.288 287.825M255.181 0v310.45" fill="none" stroke="#a7a9ac"/>
</svg>
