<svg xmlns="http://www.w3.org/2000/svg" viewBox="0 0 398 500" fill="#48096a">
    <path d="M289.536,260.415c-6.059,13.617-13.7,20.436-25.955,26.819a31.908,31.908,0,0,0-6.386,4.518,59.905,59.905,0,0,0-13.739-25.238c-.424-.491-.87-.96-1.316-1.429a58.959,58.959,0,0,1,11.237-3.339c17.807-3.448,20.429-6,30.839-14.675s24.639-8.391,24.639-8.391-13.032,7.627-19.319,21.735M265.31,331.37c9.323,15.461,12.619,17.043,24.378,23.818s16.306,20.175,16.306,20.175-11.629-9.591-27.13-10.66c-14.935-1.037-23.986-5.848-34.211-15.123a15.309,15.309,0,0,0-2.458-1.789,59.89,59.89,0,0,0,14.728-27.049,51.029,51.029,0,0,1,8.387,10.628m-.565,84.855s-7.669-12.952-21.865-19.2c-13.7-6.033-20.57-13.617-26.988-25.793a31.428,31.428,0,0,0-4.319-6.1,59.678,59.678,0,0,0,27.13-13.922,58.84,58.84,0,0,1,2.839,9.874c3.47,17.709,6.037,20.306,14.761,30.66,8.746,10.333,8.442,24.485,8.442,24.485m-41.271-178.09c15.566-9.275,17.154-12.559,23.975-24.245S267.736,197.7,267.736,197.7s-9.638,11.555-10.715,26.961c-1.055,14.84-5.9,23.83-15.229,34a24.424,24.424,0,0,0-2.524,3.59,59.514,59.514,0,0,0-27.76-14.457,51.159,51.159,0,0,1,11.966-9.656m-48.93,136.759c-15.555,9.263-17.154,12.548-23.964,24.233s-20.3,16.2-20.3,16.2,9.638-11.555,10.725-26.961c1.045-14.839,5.885-23.83,15.219-34A22.181,22.181,0,0,0,158.608,351,59.672,59.672,0,0,0,186.5,365.248a51.135,51.135,0,0,1-11.955,9.646m-85.381-.557s13.032-7.616,19.319-21.724c6.07-13.617,13.706-20.447,25.966-26.83a31.757,31.757,0,0,0,6.309-4.452,59.907,59.907,0,0,0,14.849,26.722,58.5,58.5,0,0,1-10.965,3.218c-17.808,3.459-20.418,6.012-30.84,14.676-10.4,8.685-24.638,8.39-24.638,8.39m43.207-92.678c-9.322-15.472-12.629-17.054-24.388-23.819s-16.3-20.175-16.3-20.175,11.628,9.58,27.129,10.661c14.936,1.036,23.986,5.848,34.212,15.122a15.23,15.23,0,0,0,2.317,1.7,59.955,59.955,0,0,0-14.718,27.016,51.024,51.024,0,0,1-8.257-10.507m.555-84.855s7.669,12.951,21.876,19.2c13.7,6.023,20.559,13.617,26.988,25.794a30.4,30.4,0,0,0,4.232,5.99,59.6,59.6,0,0,0-27.108,13.879,59.1,59.1,0,0,1-2.774-9.733c-3.47-17.7-6.038-20.294-14.773-30.649-8.735-10.333-8.441-24.484-8.441-24.484m264.238-38.429c-3.808.971-7.289,2.28-9.791,4.517-5.7,5.106-14.315,8.031-23.627,8.031s-17.927-2.925-23.627-8.031c-4.2-3.743-10.725-5.892-17.894-5.892s-13.685,2.149-17.883,5.892c-5.7,5.106-14.316,8.031-23.627,8.031S262.8,168,257.076,162.892c-4.188-3.743-10.693-5.892-17.862-5.892s-13.663,2.149-17.862,5.892a29.966,29.966,0,0,1-11.65,5.957v78.582a59.376,59.376,0,0,0-21.626-.044V168.849a29.005,29.005,0,0,1-11.53-5.957c-4.2-3.743-10.639-5.892-17.807-5.892s-13.652,2.149-17.84,5.892c-5.722,5.106-14.305,8.031-23.617,8.031S99.356,168,93.655,162.892C89.457,159.149,82.93,157,75.772,157s-13.685,2.149-17.894,5.892c-5.7,5.106-14.316,8.031-23.616,8.031S16.335,168,10.624,162.892c-2.5-2.237-5.983-3.546-9.78-4.517C-.494,174.894-2.865,230.53,17.553,295.6H139.9a60.428,60.428,0,0,0,.152,22.586H25.461C50.013,381.451,97.8,450.486,188.076,500V365.543A59.376,59.376,0,0,0,209.7,365.5V500c90.092-49.514,138.292-118.549,162.844-181.811H257.5a60.428,60.428,0,0,0,.152-22.586H380.443c20.418-65.073,18.047-120.709,16.72-137.228"/>
    <path d="M152.587,0,67.3.228h77.3C147.038.082,149.684,0,152.587,0Z"/>
    <path d="M330.7.228c-4.165,3.787-10.682,9.593-31.156,9.593C280.95,9.821,278,1.7,253.4.228H144.6C119.992,1.7,117.049,9.821,98.453,9.821,77.979,9.821,71.462,4.015,67.3.228L4,127.488c6.116,1.107,11.8,3.114,15.778,6.717C23.856,137.9,30.2,140,37.172,140s13.306-2.1,17.394-5.795c5.553-5.013,13.924-7.878,22.99-7.878s17.437,2.865,22.979,7.878c4.077,3.69,10.421,5.795,17.394,5.795s13.306-2.1,17.383-5.795c5.552-5.013,13.924-7.878,22.99-7.878s17.437,2.865,22.979,7.878c4.077,3.69,10.4,5.795,17.372,5.795h.727c6.972,0,13.3-2.1,17.361-5.795,5.552-5.013,13.913-7.878,22.968-7.878s17.437,2.865,22.979,7.878C266.776,137.9,273.1,140,280.082,140s13.317-2.1,17.383-5.795c5.552-5.013,13.924-7.878,22.99-7.878s17.426,2.865,22.979,7.878c4.088,3.69,10.41,5.795,17.394,5.795s13.316-2.1,17.394-5.795c3.98-3.6,9.662-5.61,15.778-6.717ZM182.755,102.637a48.741,48.741,0,0,0-34.723-13.478c-45.111.217-49.677,16.755-79.52,16.755-29.778,0-34.17-5.578-34.17-5.578L69.51,27.531C72.546,29.647,82.5,31.9,96.056,31.9c19.1,0,24.053-9.061,53.505-9.061,31.871,0,45.427,11.644,48.344,15.388Zm146.733,3.277c-29.843,0-34.409-16.538-79.52-16.755a48.741,48.741,0,0,0-34.723,13.478L200.1,38.231c2.928-3.744,16.473-15.388,48.344-15.388,29.452,0,34.408,9.061,53.505,9.061,13.555,0,23.521-2.257,26.546-4.373l35.168,72.805S359.266,105.914,329.488,105.914Z"/>
    <path d="M245.413,0c2.9,0,5.548.082,7.987.228h77.3Z"/>
</svg>
