<svg fill="#97C63D" id="Layer_1" data-name="Layer 1" xmlns="http://www.w3.org/2000/svg" viewBox="0 0 612 792"><path class="cls-1" d="M526.06,284.16c-4.22,1.07-8.08,2.52-10.85,5C508.87,294.8,499.31,298,489,298s-19.89-3.24-26.22-8.89c-4.66-4.15-11.9-6.52-19.86-6.52S427.71,285,423,289.15c-6.33,5.65-15.89,8.89-26.23,8.89s-19.88-3.24-26.22-8.89c-4.65-4.15-11.88-6.52-19.84-6.52s-15.16,2.37-19.82,6.52A33.2,33.2,0,0,1,318,295.74v87a66.34,66.34,0,0,0-12.13-1.13A67.27,67.27,0,0,0,294,382.65V295.74a32.23,32.23,0,0,1-12.8-6.59c-4.67-4.15-11.81-6.52-19.77-6.52s-15.15,2.37-19.8,6.52c-6.35,5.65-15.87,8.89-26.21,8.89s-19.89-3.24-26.23-8.89c-4.66-4.15-11.89-6.52-19.84-6.52s-15.2,2.37-19.86,6.52c-6.33,5.65-15.89,8.89-26.22,8.89s-19.9-3.24-26.23-8.89c-2.78-2.47-6.64-3.92-10.86-5C84.7,302.44,82.07,364,104.74,436H240.53a66.32,66.32,0,0,0,.16,25H113.5c27.25,70,80.3,146.39,180.5,201.18V513.4a65.72,65.72,0,0,0,24,0V662.18C418,607.39,471.49,531,498.74,461H371.05a66.61,66.61,0,0,0,.17-25H507.51C530.18,364,527.55,302.44,526.06,284.16ZM232.79,326.68s8.51,14.33,24.27,21.25c15.2,6.67,22.83,15.06,30,28.54a34.49,34.49,0,0,0,4.69,6.63,66.24,66.24,0,0,0-30.08,15.35,65.67,65.67,0,0,1-3.08-10.76c-3.85-19.59-6.7-22.46-16.39-33.92S232.79,326.68,232.79,326.68Zm-.62,93.9c-10.35-17.12-14-18.87-27.07-26.37S187,371.9,187,371.9s12.91,10.6,30.11,11.79c16.58,1.15,26.62,6.47,38,16.74a16.94,16.94,0,0,0,2.58,1.88,66.34,66.34,0,0,0-16.34,29.89A56.72,56.72,0,0,1,232.17,420.58Zm-48,102.55s14.47-8.43,21.45-24c6.73-15.06,15.2-22.62,28.81-29.68a35.47,35.47,0,0,0,7-4.93A66.27,66.27,0,0,0,258,494.05a66,66,0,0,1-12.17,3.56c-19.77,3.82-22.67,6.64-34.23,16.24S184.21,523.13,184.21,523.13Zm94.77.62c-17.27,10.25-19,13.89-26.6,26.82s-22.53,17.92-22.53,17.92,10.7-12.78,11.9-29.83c1.16-16.43,6.54-26.38,16.9-37.62a25,25,0,0,0,2.64-3.74,66.34,66.34,0,0,0,31,15.78A57.24,57.24,0,0,1,279,523.75Zm54.31-151.34c17.27-10.25,19-13.89,26.6-26.82s22.53-17.93,22.53-17.93-10.7,12.79-11.9,29.84c-1.16,16.42-6.54,26.37-16.9,37.62a27.38,27.38,0,0,0-2.8,4,66.24,66.24,0,0,0-30.82-16A56.9,56.9,0,0,1,333.29,372.41ZM379.1,569.48s-8.52-14.33-24.27-21.25c-15.21-6.67-22.83-15.06-30-28.55a34.21,34.21,0,0,0-4.8-6.74,66.18,66.18,0,0,0,30.12-15.41,64.72,64.72,0,0,1,3.15,10.94c3.85,19.58,6.7,22.46,16.39,33.91S379.1,569.48,379.1,569.48Zm.62-93.9c10.34,17.12,14,18.87,27.07,26.36s18.09,22.32,18.09,22.32-12.91-10.6-30.12-11.79c-16.57-1.15-26.62-6.48-38-16.74a17.47,17.47,0,0,0-2.73-2,66.27,66.27,0,0,0,16.36-29.93A56.74,56.74,0,0,1,379.72,475.58Zm26.89-78.51c-6.73,15.06-15.2,22.62-28.81,29.68a35.7,35.7,0,0,0-7.09,5,66.3,66.3,0,0,0-15.24-27.92q-.72-.81-1.47-1.59a65.86,65.86,0,0,1,12.48-3.69c19.77-3.81,22.67-6.64,34.23-16.24S428.06,373,428.06,373,413.59,381.46,406.61,397.07Z"/><path class="cls-1" d="M125.79,263c7.77,0,14.81-2.35,19.36-6.45,6.18-5.58,15.51-8.77,25.59-8.77s19.42,3.19,25.59,8.77c4.54,4.1,11.6,6.45,19.36,6.45s14.82-2.35,19.37-6.45c6.17-5.58,15.5-8.77,25.59-8.77s19.41,3.19,25.58,8.77c4.54,4.1,11.58,6.45,19.35,6.45h.81c7.76,0,14.79-2.35,19.33-6.45,6.17-5.58,15.49-8.77,25.57-8.77s19.41,3.19,25.59,8.77c4.54,4.1,11.59,6.45,19.35,6.45s14.83-2.35,19.36-6.45c6.18-5.58,15.51-8.77,25.59-8.77s19.42,3.19,25.59,8.77c4.55,4.1,11.6,6.45,19.36,6.45s14.83-2.35,19.38-6.45,10.75-6.24,17.56-7.48L452.6,107.52c-4.64,4.21-11.9,10.68-34.69,10.68s-24.46-10.93-60.28-10.93c-37.6,0-50.86,15.52-51.63,16.46v-.06a.21.21,0,0,1,0,.07c-.75-.9-14-16.47-51.69-16.47-35.82,0-37.51,10.93-60.27,10.93s-30-6.47-34.69-10.68L88.85,249.11c6.81,1.24,13.13,3.47,17.56,7.48S118,263,125.79,263ZM361,132.69c32.78,0,38.31,10.07,59.57,10.07,15.09,0,26.18-2.5,29.56-4.86l39.15,81s-4.89,6.2-38.05,6.2-38.3-18.4-88.53-18.65c-17.78-.07-30.1,7-38.66,15l-16.87-71.65C310.44,145.64,325.52,132.69,361,132.69ZM161.79,137.9c3.37,2.36,14.46,4.86,29.55,4.86,21.26,0,26.79-10.07,59.57-10.07,35.5,0,50.58,12.95,53.84,17.12l-16.87,71.65c-8.56-8-20.89-15.07-38.66-15-50.23.25-55.31,18.65-88.54,18.65s-38.05-6.2-38.05-6.2Z"/></svg>