<svg xmlns="http://www.w3.org/2000/svg" xmlns:xlink="http://www.w3.org/1999/xlink">
    <symbol id="squiggles" viewBox="0 0 64 13">
        <path d="M-49 10c1.391 2.667 4.175 2.667 5.567 0s4.175-2.667 5.565 0 4.175 2.667 5.569 0 4.173-2.667 5.567 0 4.175 2.667 5.565 0 4.175-2.667 5.567 0 4.175 2.667 5.566 0 4.174-2.667 5.568 0 4.174 2.667 5.566 0 4.176-2.667 5.566 0 4.176 2.667 5.568 0 4.174-2.667 5.566 0 4.175 2.667 5.566 0 4.175-2.667 5.567 0 4.176 2.667 5.568 0 4.174-2.667 5.566 0 4.176 2.667 5.566 0 4.175-2.667 5.566 0 4.176 2.667 5.568 0 4.175-2.667 5.567 0 4.175 2.667 5.566 0 4.176-2.667 5.566 0 4.175 2.667 5.568 0 4.174-2.667 5.566 0 4.176 2.667 5.567 0 4.175-2.667 5.566 0 4.176 2.667 5.567 0 4.174-2.667 5.567 0 4.175 2.667 5.566 0 4.176-2.667 5.567 0M-49 3c1.391 2.667 4.175 2.667 5.567 0s4.175-2.667 5.565 0 4.175 2.667 5.569 0 4.173-2.667 5.567 0 4.175 2.667 5.565 0S-16.992.333-15.6 3s4.175 2.667 5.566 0S-5.86.333-4.466 3-.292 5.667 1.1 3 5.276.333 6.666 3s4.176 2.667 5.568 0S16.408.333 17.8 3s4.175 2.667 5.566 0 4.175-2.667 5.567 0 4.176 2.667 5.567 0 4.175-2.667 5.567 0 4.176 2.667 5.566 0S49.808.333 51.2 3s4.176 2.667 5.568 0 4.174-2.667 5.566 0 4.175 2.667 5.566 0 4.176-2.667 5.566 0 4.175 2.667 5.568 0S83.208.333 84.6 3s4.176 2.667 5.567 0 4.175-2.667 5.566 0 4.176 2.667 5.567 0 4.174-2.667 5.567 0 4.175 2.667 5.566 0S116.609.333 118 3" fill="none" stroke-width="1.5"/>
    </symbol>
</svg>
