<svg
    viewBox="0 0 30 30"
    xmlns="http://www.w3.org/2000/svg"
>
    <path
        fill="#FFF"
        d="M8.7,20.4c-0.3,0-0.6,0-0.9,0.1c0.6,0.4,1.3,0.7,2,0.9c2.3,0.7,4.8,0.4,6.9-0.8c1.5-1,2.8-2.4,3.5-4.1 c0.4-1,0.6-2.1,0.7-3.2c0-0.5,0-0.6,0.6-1.1c0.3-0.3,0.5-0.5,0.7-0.8c0.1-0.2,0.1-0.2-0.4,0c-0.9,0.3-1,0.3-0.6-0.2 c0.3-0.3,0.6-0.7,0.7-1.1c0,0-0.1,0-0.3,0.1c-0.3,0.1-0.6,0.3-0.9,0.4l-0.6,0.2l-0.5-0.4c-0.3-0.2-0.6-0.4-0.9-0.5 c-0.4,0.1-1,0.1-1.6,0.2c-1.3,0.4-2.1,1.7-2,3v0.5l-0.5-0.1c-1.9-0.2-3.7-1.1-5-2.5l-0.7-0.7L8.7,11c-0.4,1.1-0.1,2.3,0.6,3.1 c0.4,0.4,0.3,0.5-0.4,0.2c-0.2-0.1-0.3-0.1-0.5-0.1c0,0.5,0.2,1,0.4,1.4c0.3,0.6,0.8,1.1,1.4,1.4l0.5,0.2h-0.6c-0.6,0-0.6,0-0.6,0.2 c0.4,0.8,1.1,1.5,2,1.7l0.6,0.2l-0.6,0.3C10.6,20.1,9.7,20.4,8.7,20.4z"
    />
</svg>
